<svg width="20.000000" height="20.000000" viewBox="0 0 20 20" fill="none" xmlns="http://www.w3.org/2000/svg" xmlns:xlink="http://www.w3.org/1999/xlink">
	<desc>
			Created with Pixso.
	</desc>
	<g opacity="0.000000">
		<rect x="-2.000000" y="-1.998291" width="24.000000" height="24.000000" transform="rotate(90 -2.000000 -1.998291)" fill="#3C485C"/>
	</g>
	<path d="M17 9.00195L5.14001 9.00195L8.76999 4.64185C9.19724 4.12866 9.15402 3.65845 8.64038 3.23145C8.12674 2.80469 7.65662 2.84814 7.23001 3.36206L2.23001 9.36206C2.19632 9.40967 2.16632 9.45972 2.14001 9.51196C2.14001 9.56201 2.14001 9.59204 2.07001 9.64185C2.02429 9.75757 2.00095 9.87769 2 10.002C2.00095 10.1262 2.02429 10.2463 2.07001 10.3621C2.07001 10.4119 2.07001 10.4419 2.14001 10.4919C2.16632 10.5442 2.19632 10.5942 2.23001 10.6418L7.23001 16.6418C7.43033 16.8826 7.68698 17.0024 8 17.002C8.24106 17.0024 8.45438 16.9258 8.64001 16.772C9.15451 16.3455 9.19785 15.8755 8.76999 15.3621L5.14001 11.002L17 11.002C17.6667 11.002 18 10.6687 18 10.002C18 9.33521 17.6667 9.00195 17 9.00195Z" fill="#3C485C"/>
	<defs/>
</svg>
