<svg width="20.000000" height="20.000000" viewBox="0 0 20 20" fill="none" xmlns="http://www.w3.org/2000/svg" xmlns:xlink="http://www.w3.org/1999/xlink">
	<desc>
			Created with Pixso.
	</desc>
	<g opacity="0.000000">
		<rect width="24.000000" height="24.000000" transform="matrix(-0 -1 -1 0 605 2227)" fill="#3C485C"/>
	</g>
	<path d="M3.00006 9.00171L14.86 9.00171L11.23 4.6416C10.8028 4.12842 10.846 3.6582 11.3596 3.2312C11.8732 2.80444 12.3434 2.8479 12.77 3.36182L17.7701 9.36182C17.8038 9.40942 17.8337 9.45947 17.86 9.51172C17.86 9.56177 17.86 9.5918 17.9301 9.6416C17.9758 9.75732 17.9991 9.87744 18.0001 10.0017C17.9991 10.126 17.9758 10.2461 17.9301 10.3618C17.9301 10.4116 17.9301 10.4417 17.86 10.4917C17.8337 10.5439 17.8038 10.594 17.7701 10.6416L12.7701 16.6416C12.5698 16.8823 12.3131 17.0022 12.0001 17.0017C11.7591 17.0022 11.5457 16.9255 11.3601 16.7717C10.8456 16.3452 10.8022 15.8752 11.2301 15.3618L14.86 11.0017L3.00006 11.0017C2.33337 11.0017 2.00006 10.6685 2.00006 10.0017C2.00006 9.33496 2.33337 9.00171 3.00006 9.00171Z" fill="#3C485C"/>
	<defs/>
</svg>
