<svg width="14.000000" height="16.000000" viewBox="0 0 14 16" fill="none" xmlns="http://www.w3.org/2000/svg" xmlns:xlink="http://www.w3.org/1999/xlink">
	<desc>
			Created with Pixso.
	</desc>
	<path d="M13.7068 8.86377L7.81879 2.62402C7.62677 2.36816 7.30676 2.24023 6.98676 2.24023C6.66681 2.24023 6.37878 2.36816 6.15479 2.5918L0.298767 8.86377C-0.0852051 9.27979 0.0108032 9.63184 0.0747681 9.75977C0.138794 9.88818 0.33075 10.208 0.874756 10.208L3.43475 10.208L3.43475 14.8159C3.43475 15.4561 3.97876 16 4.61877 16L9.32275 16C9.96277 16 10.5068 15.4878 10.5068 14.8159L10.5068 10.2402L13.0988 10.2402C13.6428 10.2402 13.8348 9.91992 13.8988 9.79199C13.9948 9.63184 14.0908 9.27979 13.7068 8.86377ZM10.6668 9.18408C10.0268 9.18408 9.48279 9.6958 9.48279 10.3682L9.48279 14.9761L4.52277 14.9761L4.52277 10.3682C4.52277 9.72803 3.97876 9.18408 3.33881 9.18408L1.41876 9.18408L6.98676 3.23193L12.5548 9.18408L10.6668 9.18408ZM0.6828 1.02393L13.3228 1.02393C13.6108 1.02393 13.8348 0.799805 13.8348 0.512207C13.8348 0.224121 13.6108 0 13.3228 0L0.6828 0C0.394775 0 0.138794 0.224121 0.138794 0.512207C0.138794 0.799805 0.394775 1.02393 0.6828 1.02393Z" fill="#000000"/>
	<defs/>
</svg>
