<svg width="40" height="40" viewBox="0 0 40 40" fill="none" xmlns="http://www.w3.org/2000/svg">
<g filter="url(#filter0_i_1854_52921)">
<g clip-path="url(#clip0_1854_52921)">
<rect width="40" height="40" fill="#35127C"/>
<path d="M10.625 14.375H25.625C27.6961 14.375 29.375 16.0539 29.375 18.125V28.75C29.375 30.8211 27.6961 32.5 25.625 32.5H14.375C12.3039 32.5 10.625 30.8211 10.625 28.75V14.375Z" fill="url(#paint0_linear_1854_52921)"/>
<path d="M10.625 6.14264C10.625 5.02901 11.9714 4.4713 12.7589 5.25876L21.875 14.3749H10.625V6.14264Z" fill="url(#paint1_linear_1854_52921)"/>
<path d="M27.5 18.4375C27.5 19.6456 26.5206 20.625 25.3125 20.625C24.1044 20.625 23.125 19.6456 23.125 18.4375C23.125 17.2294 24.1044 16.25 25.3125 16.25C26.5206 16.25 27.5 17.2294 27.5 18.4375Z" fill="white"/>
</g>
</g>
<defs>
<filter id="filter0_i_1854_52921" x="0" y="0" width="40" height="40" filterUnits="userSpaceOnUse" color-interpolation-filters="sRGB">
<feFlood flood-opacity="0" result="BackgroundImageFix"/>
<feBlend mode="normal" in="SourceGraphic" in2="BackgroundImageFix" result="shape"/>
<feColorMatrix in="SourceAlpha" type="matrix" values="0 0 0 0 0 0 0 0 0 0 0 0 0 0 0 0 0 0 127 0" result="hardAlpha"/>
<feOffset/>
<feGaussianBlur stdDeviation="0.5"/>
<feComposite in2="hardAlpha" operator="arithmetic" k2="-1" k3="1"/>
<feColorMatrix type="matrix" values="0 0 0 0 0 0 0 0 0 0 0 0 0 0 0 0 0 0 0.24 0"/>
<feBlend mode="darken" in2="shape" result="effect1_innerShadow_1854_52921"/>
</filter>
<linearGradient id="paint0_linear_1854_52921" x1="14.0625" y1="14.375" x2="29.375" y2="34.375" gradientUnits="userSpaceOnUse">
<stop stop-color="#F65EC8"/>
<stop offset="0.645564" stop-color="#3FAEFF"/>
<stop offset="1" stop-color="#21FFFF"/>
</linearGradient>
<linearGradient id="paint1_linear_1854_52921" x1="14.0625" y1="15.3124" x2="27.9533" y2="12.0756" gradientUnits="userSpaceOnUse">
<stop stop-color="#F65EC9"/>
<stop offset="1" stop-color="#0D09BC"/>
</linearGradient>
<clipPath id="clip0_1854_52921">
<rect width="40" height="40" rx="9.13" fill="white"/>
</clipPath>
</defs>
</svg>
