<svg width="20.000000" height="20.000000" viewBox="0 0 20 20" fill="none" xmlns="http://www.w3.org/2000/svg" xmlns:xlink="http://www.w3.org/1999/xlink">
	<desc>
			Created with Pixso.
	</desc>
	<path d="M19 10C19 14.9661 14.9658 19 10 19C5.03418 19 1 14.9661 1 10C1 5.03394 5.03418 1 10 1C14.9658 1 19 5.03394 19 10ZM15.0898 15.0895Q12.9785 17.2 10 17.2Q7.02148 17.2 4.91016 15.0895Q2.7998 12.979 2.7998 10Q2.7998 7.021 4.91016 4.91052Q7.02148 2.80005 10 2.80005Q12.9785 2.80005 15.0898 4.91052Q17.2002 7.021 17.2002 10Q17.2002 12.979 15.0898 15.0895ZM11.5996 7.54565Q11.8838 7.54565 12.168 7.83203Q12.4541 8.11597 12.4541 8.40002Q12.4541 8.68396 12.168 8.96802L11.1279 10L12.168 11.032Q12.4541 11.316 12.4541 11.6Q12.4541 11.884 12.168 12.168Q11.8838 12.4543 11.5996 12.4543Q11.3164 12.4543 11.0322 12.168L10 11.1281L8.96777 12.168Q8.68359 12.4543 8.40039 12.4543Q8.11621 12.4543 7.83203 12.168Q7.5459 11.884 7.5459 11.6Q7.5459 11.316 7.83203 11.032L8.87207 10L7.83203 8.96802Q7.54785 8.68396 7.54785 8.40002Q7.54785 8.11597 7.83203 7.83203Q8.40039 7.26404 8.96777 7.83203L10 8.87195L11.0322 7.83203Q11.3164 7.54565 11.5996 7.54565Z" fill-rule="evenodd" clip-rule="evenodd" fill="#565CFF" fill-opacity="1.000000"/>
	<defs/>
</svg>
