<svg width="16.000000" height="16.000000" viewBox="0 0 16 16" fill="none" xmlns="http://www.w3.org/2000/svg" xmlns:xlink="http://www.w3.org/1999/xlink">
	<desc>
			Created with Pixso.
	</desc>
	<g opacity="0.000000"/>
	<circle cx="8.000000" cy="8.000000" r="7.000000" fill="#C4C4C4"/>
	<path d="M10.1682 6.25819C9.82715 5.91396 9.48535 5.91396 9.1438 6.25819L8.21289 7.19611L7.28223 6.25819C6.94141 5.91676 6.59961 5.91676 6.25781 6.25819C5.9165 6.59975 5.9165 6.94124 6.25781 7.28268L7.1958 8.21338L6.25781 9.14407C5.91406 9.48567 5.91406 9.8271 6.25781 10.1686C6.59961 10.5129 6.94141 10.5129 7.28223 10.1686L8.21289 9.23065L9.1438 10.1686C9.48535 10.5129 9.82715 10.5129 10.1682 10.1686C10.5127 9.8271 10.5127 9.48567 10.1682 9.14407L9.23022 8.21338L10.1682 7.28268C10.5127 6.94124 10.5127 6.59975 10.1682 6.25819Z" fill="#FFFFFF"/>
	<defs/>
</svg>
