<svg width="20.000000" height="20.000000" viewBox="0 0 20 20" fill="none" xmlns="http://www.w3.org/2000/svg" xmlns:xlink="http://www.w3.org/1999/xlink">
	<desc>
			Created with Pixso.
	</desc>
	<g opacity="0.000000">
		<rect x="-0.496094" y="-0.550629" width="21.000233" height="21.000233" fill="#565CFF"/>
	</g>
	<path d="M16.4785 5.87193L14.0811 3.47441C13.3232 2.76274 12.5479 2.74232 11.7539 3.41315L3.87891 11.2882C3.58691 11.5822 3.4209 11.9351 3.37988 12.347L3.00391 15.9958C2.97852 16.2689 3.06348 16.5022 3.25781 16.6958C3.42969 16.8664 3.63672 16.951 3.87891 16.9496L3.95703 16.9496L7.60645 16.6171C8.01855 16.576 8.37109 16.4098 8.66504 16.1183L16.54 8.24321C17.3076 7.43243 17.2871 6.64201 16.4785 5.87193L16.4785 5.87193ZM7.44824 14.867L4.82324 15.112L5.05957 12.487L10.0039 7.60445L12.3662 9.96698L7.44824 14.867ZM13.5039 8.79446L11.1592 6.44943L12.8652 4.69942L15.2539 7.0882L13.5039 8.79446Z" fill="#565CFF"/>
	<defs/>
</svg>
