<svg width="220" height="140" viewBox="0 0 220 140" fill="none" xmlns="http://www.w3.org/2000/svg">
<g opacity="0.8">
<path d="M114.647 39.0506C113.909 38.3748 112.945 38 111.945 38H79C76.7909 38 75 39.7909 75 42V119C75 121.209 76.7909 123 79 123H138.973C141.182 123 142.973 121.209 142.973 119V65L114.647 39.0506Z" fill="url(#paint0_linear_3872_86482)"/>
<path fill-rule="evenodd" clip-rule="evenodd" d="M91 54C91 52.3431 92.3431 51 94 51H122C123.657 51 125 52.3431 125 54V80C125 81.6569 123.657 83 122 83H94C92.3431 83 91 81.6569 91 80V54ZM91 95C91 93.3431 92.3431 92 94 92H122C123.657 92 125 93.3431 125 95C125 96.6569 123.657 98 122 98H94C92.3431 98 91 96.6569 91 95ZM94 103C92.3431 103 91 104.343 91 106C91 107.657 92.3431 109 94 109H107C108.657 109 110 107.657 110 106C110 104.343 108.657 103 107 103H94Z" fill="url(#paint1_linear_3872_86482)"/>
<path d="M103.042 63.2829C100.489 67.1518 96.736 72.844 94.9744 75.5266C94.5456 76.1796 95.0031 77.0186 95.7843 77.0186H119.534C120.391 77.0186 120.851 76.0103 120.289 75.363L114.142 68.2847C113.744 67.8266 113.033 67.8254 112.634 68.2822L110.777 70.4064C110.338 70.9083 109.54 70.8484 109.181 70.2865L104.718 63.298C104.328 62.6878 103.441 62.6786 103.042 63.2829Z" fill="#817692"/>
<g filter="url(#filter0_b_3872_86482)">
<path fill-rule="evenodd" clip-rule="evenodd" d="M111 38C111.641 38 113.564 38 113.564 41.8882C113.564 45.7763 113.564 57.2237 113.564 57.2237C113.564 61.5184 117.008 65 121.256 65H143L114.711 39.0522C113.973 38.3755 113.009 38 112.007 38H111Z" fill="url(#paint2_linear_3872_86482)"/>
<path d="M141.715 64.5H121.256C117.289 64.5 114.064 61.2474 114.064 57.2237H113.564C114.064 57.2237 114.064 57.2237 114.064 57.2236V57.2232V57.2225V57.2216V57.2204V57.219V57.2173V57.2154V57.2132V57.2107V57.208V57.2051V57.2019V57.1984V57.1947V57.1907V57.1865V57.1821V57.1774V57.1724V57.1672V57.1618V57.1561V57.1502V57.144V57.1376V57.131V57.1241V57.117V57.1096V57.102V57.0942V57.0861V57.0778V57.0693V57.0605V57.0515V57.0423V57.0328V57.0232V57.0132V57.0031V56.9927V56.9821V56.9713V56.9603V56.949V56.9375V56.9258V56.9139V56.9017V56.8894V56.8768V56.864V56.851V56.8377V56.8243V56.8106V56.7968V56.7827V56.7684V56.7539V56.7391V56.7242V56.7091V56.6938V56.6782V56.6625V56.6465V56.6303V56.614V56.5974V56.5807V56.5637V56.5465V56.5292V56.5116V56.4939V56.4759V56.4578V56.4394V56.4209V56.4022V56.3833V56.3642V56.3449V56.3254V56.3057V56.2858V56.2658V56.2456V56.2251V56.2045V56.1838V56.1628V56.1416V56.1203V56.0988V56.0771V56.0553V56.0332V56.011V55.9886V55.966V55.9433V55.9204V55.8973V55.874V55.8506V55.827V55.8033V55.7793V55.7552V55.731V55.7065V55.6819V55.6572V55.6323V55.6072V55.5819V55.5565V55.531V55.5052V55.4794V55.4533V55.4271V55.4008V55.3743V55.3476V55.3208V55.2939V55.2668V55.2395V55.2121V55.1845V55.1568V55.129V55.101V55.0729V55.0446V55.0162V54.9876V54.9589V54.93V54.901V54.8719V54.8426V54.8132V54.7837V54.754V54.7242V54.6943V54.6642V54.634V54.6036V54.5732V54.5426V54.5118V54.481V54.45V54.4189V54.3877V54.3563V54.3248V54.2932V54.2615V54.2296V54.1977V54.1656V54.1334V54.1011V54.0686V54.0361V54.0034V53.9706V53.9377V53.9047V53.8716V53.8383V53.805V53.7716V53.738V53.7043V53.6706V53.6367V53.6027V53.5686V53.5344V53.5001V53.4657V53.4312V53.3966V53.3619V53.3271V53.2923V53.2573V53.2222V53.187V53.1517V53.1164V53.0809V53.0454V53.0097V52.974V52.9382V52.9023V52.8663V52.8302V52.7941V52.7578V52.7215V52.6851V52.6486V52.612V52.5754V52.5386V52.5018V52.4649V52.428V52.3909V52.3538V52.3166V52.2793V52.242V52.2046V52.1671V52.1296V52.0919V52.0543V52.0165V51.9787V51.9408V51.9028V51.8648V51.8267V51.7886V51.7504V51.7121V51.6738V51.6354V51.597V51.5585V51.5199V51.4813V51.4427V51.4039V51.3652V51.3263V51.2875V51.2485V51.2096V51.1705V51.1315V51.0924V51.0532V51.014V50.9747V50.9354V50.8961V50.8567V50.8173V50.7778V50.7383V50.6988V50.6592V50.6196V50.5799V50.5402V50.5005V50.4607V50.421V50.3811V50.3413V50.3014V50.2615V50.2216V50.1816V50.1416V50.1016V50.0615V50.0215V49.9814V49.9413V49.9011V49.861V49.8208V49.7806V49.7404V49.7002V49.6599V49.6196V49.5794V49.5391V49.4988V49.4585V49.4181V49.3778V49.3374V49.2971V49.2567V49.2164V49.176V49.1356V49.0952V49.0548V49.0144V48.974V48.9336V48.8932V48.8528V48.8124V48.772V48.7317V48.6913V48.6509V48.6105V48.5701V48.5298V48.4894V48.4491V48.4087V48.3684V48.3281V48.2878V48.2475V48.2072V48.167V48.1267V48.0865V48.0463V48.0061V47.9659V47.9258V47.8857V47.8456V47.8055V47.7654V47.7254V47.6854V47.6454V47.6054V47.5655V47.5256V47.4857V47.4459V47.4061V47.3663V47.3265V47.2868V47.2471V47.2075V47.1679V47.1283V47.0888V47.0493V47.0098V46.9704V46.931V46.8917V46.8524V46.8132V46.774V46.7348V46.6957V46.6567V46.6177V46.5787V46.5398V46.5009V46.4621V46.4233V46.3846V46.346V46.3074V46.2689V46.2304V46.1919V46.1536V46.1153V46.077V46.0388V46.0007V45.9626V45.9246V45.8867V45.8488V45.811V45.7733V45.7356V45.698V45.6605V45.623V45.5856V45.5483V45.5111V45.4739V45.4368V45.3998V45.3628V45.326V45.2892V45.2525V45.2158V45.1793V45.1428V45.1064V45.0701V45.0339V44.9977V44.9617V44.9257V44.8898V44.8541V44.8183V44.7827V44.7472V44.7118V44.6764V44.6412V44.606V44.571V44.536V44.5012V44.4664V44.4317V44.3972V44.3627V44.3283V44.2941V44.2599V44.2258V44.1919V44.158V44.1243V44.0906V44.0571V44.0237V43.9904V43.9572V43.9241V43.8911V43.8582V43.8255V43.7928V43.7603V43.7279V43.6956V43.6634V43.6314V43.5994V43.5676V43.5359V43.5044V43.4729V43.4416V43.4104V43.3793V43.3483V43.3175V43.2868V43.2563V43.2258V43.1955V43.1653V43.1353V43.1054V43.0756V43.046V43.0165V42.9871V42.9579V42.9288V42.8998V42.871V42.8423V42.8138V42.7854V42.7572V42.7291V42.7011V42.6733V42.6457V42.6181V42.5908V42.5635V42.5365V42.5096V42.4828V42.4562V42.4297V42.4034V42.3773V42.3513V42.3254V42.2998V42.2742V42.2489V42.2237V42.1986V42.1738V42.149V42.1245V42.1001V42.0759V42.0518V42.0279V42.0042V41.9807V41.9573V41.9341V41.911V41.8882C114.064 40.4629 113.815 39.4728 113.415 38.7956C113.764 38.9487 114.088 39.159 114.373 39.4207L141.715 64.5Z" stroke="url(#paint3_linear_3872_86482)"/>
</g>
</g>
<defs>
<filter id="filter0_b_3872_86482" x="102" y="29" width="50" height="45" filterUnits="userSpaceOnUse" color-interpolation-filters="sRGB">
<feFlood flood-opacity="0" result="BackgroundImageFix"/>
<feGaussianBlur in="BackgroundImage" stdDeviation="4.5"/>
<feComposite in2="SourceAlpha" operator="in" result="effect1_backgroundBlur_3872_86482"/>
<feBlend mode="normal" in="SourceGraphic" in2="effect1_backgroundBlur_3872_86482" result="shape"/>
</filter>
<linearGradient id="paint0_linear_3872_86482" x1="125.5" y1="52" x2="75" y2="121" gradientUnits="userSpaceOnUse">
<stop stop-color="#817692"/>
<stop offset="1" stop-color="#947EAB" stop-opacity="0.51"/>
</linearGradient>
<linearGradient id="paint1_linear_3872_86482" x1="100" y1="38" x2="105.5" y2="146" gradientUnits="userSpaceOnUse">
<stop stop-color="white"/>
<stop offset="1" stop-color="white" stop-opacity="0"/>
</linearGradient>
<linearGradient id="paint2_linear_3872_86482" x1="129" y1="47.5" x2="123.722" y2="66.9965" gradientUnits="userSpaceOnUse">
<stop stop-color="#8E80AB" stop-opacity="0.08"/>
<stop offset="1" stop-color="#D2CEDB"/>
</linearGradient>
<linearGradient id="paint3_linear_3872_86482" x1="112.5" y1="68.5" x2="124.862" y2="56.4479" gradientUnits="userSpaceOnUse">
<stop stop-color="white"/>
<stop offset="1" stop-color="white" stop-opacity="0"/>
</linearGradient>
</defs>
</svg>
