<svg width="210" height="70" viewBox="0 0 210 70" fill="none" xmlns="http://www.w3.org/2000/svg">
<g filter="url(#filter0_i_960_44483)">
<path fill-rule="evenodd" clip-rule="evenodd" d="M40.876 20.7872C36.6536 20.7872 33.2306 24.1959 33.2306 28.4007V55.5444C33.2306 58.4985 30.8258 60.8931 27.8594 60.8931C24.893 60.8931 22.4883 58.4985 22.4883 55.5444V28.4007C22.4883 18.2879 30.7207 10.0898 40.876 10.0898C51.0313 10.0898 59.2638 18.2879 59.2638 28.4007C59.2638 38.5136 51.0313 46.7117 40.876 46.7117C37.9096 46.7117 35.5049 44.317 35.5049 41.363C35.5049 38.4089 37.9096 36.0143 40.876 36.0143C45.0985 36.0143 48.5215 32.6056 48.5215 28.4007C48.5215 24.1959 45.0985 20.7872 40.876 20.7872Z" fill="url(#paint0_linear_960_44483)"/>
<path fill-rule="evenodd" clip-rule="evenodd" d="M36.0418 34.3922C39.3115 37.0528 44.1281 36.5701 46.7998 33.3141C49.4716 30.058 48.9869 25.2616 45.7171 22.601C43.4201 20.7319 43.0796 17.3623 44.9565 15.0748C46.8335 12.7874 50.2172 12.4483 52.5143 14.3174C60.3781 20.7163 61.5439 32.2518 55.1182 40.0828C48.6925 47.9138 37.1085 49.0747 29.2447 42.6758L13.3009 29.7022C11.0038 27.8331 10.6633 24.4635 12.5403 22.176C14.4172 19.8886 17.801 19.5494 20.098 21.4185L36.0418 34.3922ZM16.6654 28.526C18.2627 28.526 19.5575 27.2366 19.5575 25.646C19.5575 24.0553 18.2627 22.7659 16.6654 22.7659C15.0681 22.7659 13.7732 24.0553 13.7732 25.646C13.7732 27.2366 15.0681 28.526 16.6654 28.526Z" fill="white"/>
</g>
<path fill-rule="evenodd" clip-rule="evenodd" d="M75.6781 47.2798V48.0709H80.1268V48.6979C80.0966 51.37 79.7685 53.5495 79.1116 55.2214C78.3799 56.8634 77.1711 58.1473 75.4688 59.0728L75.9321 59.7893C77.6783 58.834 78.9324 57.5352 79.6937 55.8782C80.1412 54.8631 80.4549 53.6689 80.6636 52.2806H86.3513C86.3067 55.2363 86.1873 57.0576 85.993 57.7592C85.7988 58.4608 85.3217 58.819 84.5598 58.8489C84.0525 58.834 83.3956 58.819 82.6048 58.7891L82.8286 59.5654C83.5747 59.5803 84.2166 59.5953 84.754 59.5953C85.6347 59.5953 86.247 59.2072 86.6053 58.4608C86.9636 57.6845 87.1428 55.3707 87.1723 51.5044H80.7686C80.8579 50.6385 80.9176 49.6981 80.9327 48.6979V48.0709H88.6653V47.2798H75.6781ZM91.9347 53.0419V53.8331H105.4V53.0419H101.16C102.115 51.37 103.041 49.2055 103.936 46.5483L103.161 46.2647C102.384 48.7278 101.444 50.9819 100.309 53.0419H91.9347ZM93.7112 47.1305L92.9644 47.5037C93.7112 48.8024 94.4272 50.2803 95.0841 51.9223L95.8309 51.5491C95.174 49.9519 94.4724 48.474 93.7112 47.1305ZM97.3685 46.2945L96.6066 46.6677C97.3383 48.0262 98.0247 49.5787 98.6816 51.3103L99.4284 50.9222C98.7866 49.2502 98.0995 47.7127 97.3685 46.2945ZM96.1144 54.8184C95.0992 56.4903 93.8897 57.9383 92.4866 59.1624L93.1586 59.6251C94.5768 58.3712 95.8007 56.8933 96.8454 55.1766L96.1144 54.8184ZM101.309 54.7736L100.622 55.2065C102.086 56.8187 103.235 58.2816 104.071 59.6102L104.787 59.1176C103.982 57.8786 102.817 56.4306 101.309 54.7736ZM121.88 54.3556L120.402 54.5945V46.2348H119.596V54.7288L114.699 55.5349L114.819 56.341L119.596 55.5647V59.7595H120.402V55.4304L122.014 55.1617L121.88 54.3556ZM115.909 47.0111L115.356 47.5634C116.536 48.4143 117.476 49.2204 118.177 49.9817L118.73 49.4145C117.984 48.6083 117.043 47.8172 115.909 47.0111ZM115.461 50.4594L114.894 51.0117C116.088 51.9074 117.043 52.7434 117.759 53.5346L118.342 52.9673C117.566 52.1314 116.61 51.2954 115.461 50.4594ZM108.684 50.2952V51.0864H111.117C110.564 52.833 109.624 54.4003 108.281 55.7737L108.639 56.6395C109.743 55.3856 110.595 53.9824 111.192 52.415V59.7595H112.013V52.6837C112.61 53.2509 113.356 54.0421 114.237 55.0423L114.684 54.3706C113.774 53.445 112.878 52.6239 112.013 51.9074V51.0864H114.177V50.2952H112.013V47.6828C112.759 47.5335 113.475 47.3693 114.132 47.1753L113.849 46.414C112.356 46.8618 110.639 47.1902 108.684 47.3693L108.848 48.1307C109.654 48.0411 110.445 47.9515 111.192 47.8321V50.2952H108.684ZM126.537 59.6251C127.328 59.6251 127.731 59.2072 127.731 58.401V53.9824C128.314 53.7137 128.881 53.4301 129.448 53.1016V52.3104C128.881 52.6389 128.314 52.9374 127.731 53.2062V49.8026H129.388V49.0114H127.731V46.205H126.925V49.0114H125.029V49.8026H126.925V53.5495C126.224 53.8182 125.492 54.0571 124.746 54.266L124.955 55.0572C125.627 54.8482 126.283 54.6094 126.925 54.3407V58.207C126.925 58.6847 126.702 58.9235 126.254 58.9235C125.896 58.9235 125.522 58.9086 125.134 58.8787L125.298 59.6251H126.537ZM130.016 48.4442V49.2055H133.673V51.8776H130.284V52.6538H131.091C131.538 54.266 132.404 55.6842 133.702 56.9381C132.568 57.8487 131.18 58.5802 129.523 59.1475L129.911 59.8341C131.613 59.237 133.076 58.4309 134.27 57.4457C135.315 58.3413 136.614 59.1176 138.166 59.8043L138.584 59.1475C137.091 58.5205 135.837 57.8039 134.822 56.968C136.076 55.7737 136.972 54.3257 137.539 52.609V51.8776H134.479V49.2055H138.136V48.4442H134.479V46.2199H133.673V48.4442H130.016ZM131.852 52.6538H136.748C136.211 54.1167 135.375 55.3856 134.24 56.4604C133.076 55.3558 132.27 54.0869 131.852 52.6538ZM144.167 49.8623H148.018V53.6092H143.525V54.4003H148.018V58.4757H141.719V59.2818H154.796V58.4757H148.81V54.4003H153.541V53.6092H148.81V49.8623H153.84V49.086H148.81V46.2945H148.018V49.086H144.466C144.72 48.3546 144.943 47.5634 145.122 46.7275L144.301 46.5632C143.794 49.1309 142.809 51.1759 141.361 52.6688L141.898 53.3255C142.824 52.4 143.57 51.2356 144.167 49.8623ZM164.26 46.0557C164.185 46.6826 164.066 47.2798 163.902 47.8321H158.528V48.6233H163.633C163.335 49.3099 162.961 49.9071 162.499 50.4146C161.543 51.4148 159.99 52.1911 157.826 52.7285L158.154 53.4898C159.976 53.0121 161.379 52.415 162.364 51.6686C163.081 52.206 163.842 52.8628 164.633 53.639L165.185 53.0718C164.35 52.2956 163.603 51.6686 162.917 51.1909C163.006 51.1013 163.081 51.0267 163.156 50.9371C163.723 50.2803 164.171 49.519 164.499 48.6233H164.857C165.603 50.6684 167.649 52.2806 170.963 53.445L171.395 52.7434C168.32 51.7582 166.41 50.3847 165.663 48.6233H170.619V47.8321H164.753C164.887 47.3245 164.992 46.7573 165.066 46.1452L164.26 46.0557ZM159.453 54.8631C159.154 56.2514 158.677 57.5054 158.02 58.6101L158.722 59.0429C159.379 57.9085 159.886 56.5798 160.244 55.0423L159.453 54.8631ZM164.857 54.3407L164.126 54.5795C164.618 55.3558 165.066 56.2365 165.484 57.2367L166.231 56.8933C165.842 55.9977 165.395 55.1468 164.857 54.3407ZM169.291 54.6392L168.499 54.893C169.216 55.9678 169.873 57.1919 170.455 58.5951L171.201 58.2517C170.664 56.968 170.022 55.7737 169.291 54.6392ZM166.693 59.4758C167.231 59.4758 167.619 59.3415 167.858 59.1026C168.156 58.7891 168.35 57.9681 168.44 56.6395L167.678 56.3858C167.619 57.5054 167.484 58.1921 167.275 58.4309C167.141 58.5951 166.888 58.6847 166.529 58.6847H163.156C162.678 58.6847 162.454 58.4459 162.454 57.998V54.8333H161.648V58.1622C161.648 59.028 162.066 59.4758 162.917 59.4758H166.693ZM184.667 46.1901L184.144 46.6826C184.92 47.2947 185.547 47.8769 186.01 48.4143L186.548 47.8918C186.04 47.3245 185.413 46.7573 184.667 46.1901ZM185.95 50.6982C185.458 52.4299 184.801 53.9227 183.965 55.1766C183.845 54.8034 183.726 54.4003 183.606 53.9525C183.308 52.8031 183.114 51.2655 183.01 49.3249H187.712V48.5636H182.98C182.95 47.8172 182.92 47.0111 182.92 46.1452H182.114C182.114 46.9812 182.128 47.7873 182.159 48.5636H175.993V53.5047C175.948 55.9678 175.441 57.8786 174.471 59.2519L175.083 59.8043C176.172 58.2219 176.74 56.132 176.785 53.5047V52.818H179.636C179.636 54.5198 179.576 55.6693 179.486 56.2664C179.397 56.759 179.173 57.0127 178.785 57.0426C178.382 57.0426 177.889 57.0127 177.307 56.9829L177.561 57.7293C178.068 57.7592 178.501 57.7741 178.875 57.7741C179.576 57.7442 180.009 57.386 180.173 56.7291C180.338 55.9828 180.427 54.4153 180.442 52.0418H176.785V49.3249H182.188C182.293 51.2506 182.502 52.8628 182.816 54.1466C182.98 54.8034 183.174 55.4005 183.398 55.9678C182.323 57.3412 181.024 58.3563 179.486 59.0429L179.949 59.7296C181.397 59.0877 182.666 58.1174 183.756 56.8038C183.995 57.3412 184.263 57.8189 184.592 58.2368C185.294 59.1325 185.95 59.5803 186.577 59.5803C187.205 59.5803 187.682 58.6101 188.01 56.6694L187.279 56.2813C187.04 57.8636 186.756 58.6698 186.428 58.6847C186.085 58.6847 185.637 58.3115 185.099 57.5651C184.816 57.1471 184.547 56.6545 184.308 56.0872C185.278 54.7138 186.07 53.027 186.681 51.0117L185.95 50.6982ZM202.595 51.6387H192.698V57.3113H193.504V52.3851H201.789V57.162H202.595V51.6387ZM193.608 46.817V50.3848H201.684V46.817H193.608ZM200.893 49.6683H194.4V47.5485H200.893V49.6683ZM197.37 53.5047C197.25 55.3856 196.833 56.7142 196.116 57.5203C195.325 58.3712 193.698 58.8787 191.25 59.0429L191.578 59.7744C194.25 59.5356 195.982 58.9384 196.788 57.998C197.519 57.2218 197.982 55.7439 198.191 53.5943L197.37 53.5047ZM198.624 57.0576L198.206 57.6696C200.027 58.1921 201.789 58.9086 203.52 59.8192L203.968 59.1624C202.356 58.3413 200.58 57.6397 198.624 57.0576Z" fill="white"/>
<path fill-rule="evenodd" clip-rule="evenodd" d="M81.8341 19.7291C82.0651 19.4993 82.1806 19.1984 82.1806 18.8265V18.4325C82.1806 18.0605 82.0651 17.7596 81.8341 17.5298C81.6038 17.3001 81.3013 17.1852 80.9278 17.1852H79.6751V11.3095C79.6751 10.8719 79.5432 10.5217 79.28 10.2591C79.0162 9.99655 78.6644 9.86523 78.2248 9.86523C77.8074 9.86523 77.4615 9.99655 77.1866 10.2591C76.9123 10.5217 76.7744 10.8719 76.7744 11.3095V17.1852H75.5223C75.1483 17.1852 74.8464 17.3001 74.6154 17.5298C74.385 17.7596 74.2695 18.0605 74.2695 18.4325V18.8265C74.2695 19.1984 74.385 19.4993 74.6154 19.7291C74.8464 19.9589 75.1483 20.0738 75.5223 20.0738H76.7744V37.9962C76.7744 38.4338 76.9123 38.7839 77.1866 39.0466C77.4615 39.3091 77.8074 39.4405 78.2248 39.4405C78.6644 39.4405 79.0162 39.3091 79.28 39.0466C79.5432 38.7839 79.6751 38.4338 79.6751 37.9962V20.0738H80.9278C81.3013 20.0738 81.6038 19.9589 81.8341 19.7291ZM82.5763 14.7233C82.8402 14.986 83.1913 15.1173 83.6309 15.1173H91.2454V16.102H84.8837C84.488 16.102 84.1474 16.2387 83.8619 16.5123C83.5758 16.7859 83.4334 17.1305 83.4334 17.5463V26.8357C83.4334 27.2734 83.5653 27.6236 83.8285 27.8861C84.0923 28.1488 84.444 28.28 84.8837 28.28H85.6417C85.8392 28.28 85.9987 28.2198 86.1194 28.0995C86.2402 27.9791 86.3012 27.8205 86.3012 27.6236V26.967H91.2454V27.6236C91.2454 27.8205 91.3058 27.9791 91.4265 28.0995C91.5473 28.2198 91.7068 28.28 91.9043 28.28H93.4537C93.6519 28.28 93.8107 28.2198 93.9321 28.0995C94.0528 27.9791 94.1132 27.8205 94.1132 27.6236V26.967H99.4531V27.6236C99.4531 27.8205 99.5135 27.9791 99.6343 28.0995C99.755 28.2198 99.9145 28.28 100.112 28.28H100.903C101.343 28.28 101.694 28.1432 101.958 27.8697C102.222 27.5962 102.354 27.2515 102.354 26.8357V17.5463C102.354 17.1305 102.211 16.7859 101.925 16.5123C101.64 16.2387 101.299 16.102 100.903 16.102H94.1132V15.1173H101.728C102.167 15.1173 102.513 14.986 102.766 14.7233C103.019 14.4608 103.145 14.1106 103.145 13.6729V13.4432C103.145 13.0711 103.04 12.7812 102.832 12.5733C102.623 12.3654 102.331 12.2615 101.958 12.2615H100.772L99.7826 10.6202C99.6507 10.3795 99.4807 10.1935 99.272 10.0622C99.0627 9.93093 98.8376 9.86523 98.5961 9.86523C98.3323 9.86523 98.0796 9.94182 97.8381 10.0951L97.2777 10.4233C97.0139 10.5765 96.8819 10.8062 96.8819 11.1126C96.8819 11.2877 96.9259 11.4299 97.0138 11.5393L97.4096 12.2615H94.1132V11.0469C94.1132 10.6968 94.003 10.4124 93.7831 10.1935C93.5639 9.9747 93.2778 9.86523 92.9267 9.86523H92.4647C92.1136 9.86523 91.8223 9.9747 91.5913 10.1935C91.3609 10.4124 91.2454 10.6968 91.2454 11.0469V12.2615H83.6309C83.1913 12.2615 82.8402 12.3873 82.5763 12.6389C82.3125 12.8906 82.1806 13.2353 82.1806 13.6729C82.1806 14.1106 82.3125 14.4608 82.5763 14.7233ZM86.3012 20.1395H91.2454V18.9578H86.3012V20.1395ZM99.4525 20.1395H94.1126V18.9578H99.4525V20.1395ZM91.2454 22.9954H86.3012V24.1114H91.2454V22.9954ZM94.1126 22.9954H99.4525V24.1114H94.1126V22.9954ZM102.255 29.396C102.694 29.396 103.045 29.5273 103.309 29.7899C103.573 30.0525 103.705 30.4026 103.705 30.8403C103.705 31.2561 103.573 31.6008 103.309 31.8743C103.045 32.1479 102.694 32.2846 102.255 32.2846H99.5188V34.3526C99.5188 35.7313 99.0187 36.8309 98.0186 37.6515C97.1615 38.3549 96.1555 38.8613 94.9998 39.1708L94.4092 39.3091C94.3436 39.3311 94.2445 39.342 94.1126 39.342C93.7608 39.342 93.4701 39.2107 93.2391 38.9481C93.0081 38.6855 92.8933 38.3463 92.8933 37.9305C92.8933 37.5366 93.0081 37.2029 93.2391 36.9294C93.4701 36.6558 93.7831 36.4644 94.1782 36.3549C95.8044 35.9172 96.6175 35.2498 96.6175 34.3526V32.2846H83.1361C82.7188 32.2846 82.3723 32.1479 82.0979 31.8743C81.823 31.6008 81.6858 31.2561 81.6858 30.8403C81.6858 30.4026 81.823 30.0525 82.0979 29.7899C82.3723 29.5273 82.7188 29.396 83.1361 29.396H96.6175V28.9693C96.6175 28.8599 96.6562 28.7669 96.733 28.6903C96.8098 28.6137 96.9141 28.5754 97.046 28.5754H99.123C99.2326 28.5754 99.3265 28.6137 99.4033 28.6903C99.48 28.7669 99.5188 28.8599 99.5188 28.9693V29.396H102.255ZM110.33 25.375C110.617 25.6485 110.957 25.7853 111.352 25.7853H132.185C132.602 25.7853 132.954 25.6485 133.24 25.375C133.526 25.1015 133.668 24.7568 133.668 24.341V13.0164C133.668 12.6225 133.526 12.2888 133.24 12.0152C132.954 11.7417 132.602 11.605 132.185 11.605H111.352C110.957 11.605 110.617 11.7417 110.33 12.0152C110.045 12.2888 109.902 12.6225 109.902 13.0164V24.341C109.902 24.7568 110.045 25.1015 110.33 25.375ZM112.803 17.2508H120.318V14.4606H112.803V17.2508ZM123.219 17.2508V14.4606H130.735V17.2508H123.219ZM120.318 22.8966V20.1393H112.803V22.8966H120.318ZM123.219 20.1393H130.735V22.8966H123.219V20.1393ZM132.02 27.6235C132.218 27.5359 132.438 27.4922 132.679 27.4922C133.228 27.4922 133.624 27.7657 133.866 28.3128L134.778 30.5787C135.334 31.9849 135.788 33.1824 136.138 34.171L136.305 34.648C136.371 34.8231 136.404 34.9981 136.404 35.1732C136.404 35.5671 136.267 35.8953 135.992 36.158C135.718 36.4205 135.349 36.5518 134.887 36.5518C134.58 36.5518 134.305 36.4643 134.064 36.2892C133.882 36.158 133.744 35.9897 133.65 35.7846L132.972 33.9674C132.447 32.5829 131.855 31.0701 131.196 29.4288C131.13 29.2319 131.097 29.0458 131.097 28.8708C131.097 28.6082 131.174 28.3675 131.328 28.1487C131.481 27.9298 131.712 27.7547 132.02 27.6235ZM164.499 28.7058C164.257 28.7058 164.037 28.7496 163.84 28.8371C163.532 28.9683 163.301 29.1434 163.147 29.3623C162.994 29.5811 162.916 29.8218 162.916 30.0844C162.916 30.2595 162.95 30.4455 163.016 30.6424C163.675 32.2837 164.267 33.7965 164.791 35.181L165.469 36.9982C165.564 37.2033 165.702 37.3716 165.883 37.5029C166.125 37.6779 166.4 37.7654 166.708 37.7654C167.169 37.7654 167.537 37.6341 167.811 37.3716C168.086 37.1089 168.224 36.7807 168.224 36.3868C168.224 36.2117 168.191 36.0367 168.124 35.8616L167.958 35.3846C167.607 34.396 167.154 33.1985 166.597 31.7923L165.686 29.5264C165.444 28.9793 165.048 28.7058 164.499 28.7058ZM126.119 35.5343C126.647 35.5343 127.284 35.2717 128.032 34.7464C128.383 34.4619 128.767 34.3197 129.185 34.3197C129.559 34.3197 129.899 34.4401 130.207 34.6808C130.58 34.9872 130.767 35.3264 130.767 35.6984C130.767 36.0266 130.613 36.3221 130.305 36.5847C128.921 37.8101 127.526 38.4229 126.119 38.4229H119.296C118.242 38.4229 117.362 38.215 116.659 37.7992C115.956 37.3834 115.445 36.8746 115.126 36.2728C114.807 35.671 114.649 35.0747 114.649 34.4839V28.9693C114.649 28.5316 114.786 28.1815 115.061 27.9189C115.335 27.6563 115.682 27.525 116.099 27.525C116.539 27.525 116.89 27.6563 117.154 27.9189C117.417 28.1815 117.549 28.5316 117.549 28.9693V34.4839C117.571 34.7683 117.709 35.0145 117.961 35.2224C118.214 35.4303 118.659 35.5343 119.296 35.5343H126.119ZM108.122 35.7969C108.298 36.0376 108.551 36.2127 108.88 36.3221C109.078 36.3878 109.254 36.4206 109.408 36.4206C109.716 36.4206 109.985 36.333 110.216 36.158C110.446 35.9829 110.605 35.7422 110.693 35.4358C111.331 33.3569 111.814 31.289 112.144 29.232C112.209 28.8162 112.133 28.466 111.913 28.1815C111.694 27.897 111.363 27.722 110.924 27.6563C110.506 27.6126 110.149 27.6782 109.853 27.8533C109.556 28.0283 109.375 28.291 109.309 28.6411L108.914 30.6762C108.671 31.8798 108.353 33.1381 107.957 34.4511C107.892 34.6261 107.858 34.8012 107.858 34.9763C107.858 35.2827 107.946 35.5562 108.122 35.7969ZM165.177 11.7184C165.617 11.7184 165.968 11.8496 166.232 12.1122C166.496 12.3748 166.628 12.725 166.628 13.1626C166.628 13.5784 166.496 13.9231 166.232 14.1966C165.968 14.4701 165.617 14.6069 165.177 14.6069H144.377C143.96 14.6069 143.614 14.4701 143.339 14.1966C143.065 13.9231 142.927 13.5784 142.927 13.1626C142.927 12.725 143.065 12.3748 143.339 12.1122C143.614 11.8496 143.96 11.7184 144.377 11.7184H165.177ZM168.968 22.9935C169.232 22.72 169.363 22.3753 169.363 21.9595C169.363 21.5219 169.232 21.1717 168.968 20.9091C168.704 20.6465 168.352 20.5153 167.913 20.5153H141.641C141.224 20.5153 140.878 20.6465 140.603 20.9091C140.328 21.1717 140.191 21.5219 140.191 21.9595C140.191 22.3753 140.328 22.72 140.603 22.9935C140.878 23.267 141.224 23.4038 141.641 23.4038H149.322H152.783H167.913C168.352 23.4038 168.704 23.267 168.968 22.9935ZM193.957 37.077C194.001 37.449 194.127 37.7499 194.336 37.9796C194.544 38.2094 194.814 38.3243 195.144 38.3243C195.246 38.3243 195.329 38.3195 195.392 38.3097L195.473 38.2915C197.078 37.9413 198.467 37.2958 199.643 36.3548C200.819 35.4138 201.406 34.1227 201.406 32.4814V11.4735C201.406 11.0359 201.274 10.6857 201.011 10.4231C200.747 10.1605 200.396 10.0292 199.956 10.0292C199.538 10.0292 199.193 10.1605 198.918 10.4231C198.643 10.6857 198.506 11.0359 198.506 11.4735V32.4814C198.506 33.2693 198.176 33.8929 197.517 34.3525C196.858 34.8121 196.089 35.1512 195.209 35.3701C194.792 35.4795 194.468 35.6874 194.237 35.9938C194.006 36.3001 193.913 36.6612 193.957 37.077ZM189.342 20.9272C189.012 20.9272 188.716 20.7959 188.452 20.5333C187.001 19.0233 185.442 16.6381 183.771 13.3775H180.936C179.618 16.1786 178.057 18.531 176.256 20.4348C175.948 20.7412 175.618 20.8944 175.267 20.8944C174.893 20.8944 174.552 20.7193 174.245 20.3692C173.959 20.0628 173.817 19.7236 173.817 19.3516C173.817 18.9577 173.981 18.5966 174.311 18.2684L174.864 17.6421C175.583 16.7948 176.228 15.8984 176.799 14.9531C177.514 13.7714 178.047 12.7647 178.398 11.9331C178.442 11.8237 178.514 11.6596 178.613 11.4408L178.713 11.2365C178.782 11.1101 178.852 11.0031 178.926 10.9156C179.189 10.6092 179.541 10.4561 179.98 10.4561H184.694C185.068 10.4561 185.375 10.5764 185.617 10.8171C185.793 10.9703 185.941 11.1836 186.062 11.4572C186.123 11.594 186.171 11.702 186.206 11.7814L186.664 12.6909C187.948 15.1559 189.159 17.0151 190.298 18.2684C190.627 18.6404 190.792 19.0233 190.792 19.4173C190.792 19.7455 190.671 20.0628 190.43 20.3692C190.122 20.7412 189.76 20.9272 189.342 20.9272ZM193.627 14.9673C193.21 14.9673 192.863 15.0986 192.589 15.3611C192.314 15.6238 192.177 15.9739 192.177 16.4115V28.7912C192.177 29.207 192.314 29.5517 192.589 29.8252C192.863 30.0987 193.21 30.2355 193.627 30.2355C194.066 30.2355 194.418 30.0987 194.682 29.8252C194.945 29.5517 195.077 29.207 195.077 28.7912V16.4115C195.077 15.9739 194.945 15.6238 194.682 15.3611C194.418 15.0986 194.066 14.9673 193.627 14.9673ZM180.146 38.5214H185.453C187.189 38.5214 188.683 37.7664 189.936 36.2565C190.111 36.0157 190.199 35.7641 190.199 35.5014C190.199 35.2826 190.133 35.0748 190.001 34.8778C189.869 34.6808 189.683 34.5276 189.441 34.4182C189.155 34.3088 188.914 34.2541 188.716 34.2541C188.189 34.2541 187.716 34.462 187.299 34.8778C186.749 35.3811 186.134 35.6328 185.453 35.6328H180.146C179.442 35.6328 179.08 35.2717 179.058 34.5496V22.5685H185.386V27.2624C185.386 27.9408 184.793 28.466 183.607 28.838L183.325 28.9355C183.06 29.0483 182.84 29.2073 182.667 29.4124C182.437 29.686 182.321 30.0197 182.321 30.4136C182.321 30.8075 182.437 31.1357 182.667 31.3984C182.898 31.6609 183.189 31.7923 183.541 31.7923C183.672 31.7923 183.771 31.7813 183.838 31.7594L184.354 31.6238C185.364 31.325 186.242 30.8614 186.985 30.2331C187.853 29.5 188.287 28.5098 188.287 27.2624V21.157C188.287 20.7412 188.145 20.3965 187.859 20.123C187.573 19.8494 187.232 19.7127 186.837 19.7127H177.641C177.223 19.7127 176.877 19.8494 176.602 20.123C176.328 20.3965 176.19 20.7412 176.19 21.157V34.5496C176.19 35.1404 176.328 35.7422 176.602 36.3549C176.877 36.9676 177.311 37.4819 177.904 37.8977C178.498 38.3135 179.245 38.5214 180.146 38.5214Z" fill="white"/>
<path d="M166.74 34.8447H143.808C142.988 34.8447 142.324 35.5089 142.324 36.3282V36.3282C142.324 37.1475 142.988 37.8116 143.808 37.8116H166.74C167.559 37.8116 168.223 37.1475 168.223 36.3282C168.223 35.5089 167.559 34.8447 166.74 34.8447Z" fill="white"/>
<path d="M87.0942 37.603C88.2853 37.603 89.2509 36.6414 89.2509 35.4553C89.2509 34.2692 88.2853 33.3076 87.0942 33.3076C85.9031 33.3076 84.9375 34.2692 84.9375 35.4553C84.9375 36.6414 85.9031 37.603 87.0942 37.603Z" fill="white"/>
<path d="M123.875 32.3227C125.067 32.3227 126.032 31.3612 126.032 30.175C126.032 28.9889 125.067 28.0273 123.875 28.0273C122.684 28.0273 121.719 28.9889 121.719 30.175C121.719 31.3612 122.684 32.3227 123.875 32.3227Z" fill="white"/>
<path d="M150.477 24.229L150.477 24.229C149.769 23.8382 148.879 24.0953 148.488 24.8032L142.527 35.6025C142.136 36.3104 142.393 37.2009 143.101 37.5917L143.101 37.5917C143.809 37.9824 144.699 37.7253 145.09 37.0175L151.051 26.2181C151.442 25.5103 151.185 24.6197 150.477 24.229Z" fill="white"/>
<defs>
<filter id="filter0_i_960_44483" x="11.3281" y="10.0898" width="47.9397" height="50.8032" filterUnits="userSpaceOnUse" color-interpolation-filters="sRGB">
<feFlood flood-opacity="0" result="BackgroundImageFix"/>
<feBlend mode="normal" in="SourceGraphic" in2="BackgroundImageFix" result="shape"/>
<feColorMatrix in="SourceAlpha" type="matrix" values="0 0 0 0 0 0 0 0 0 0 0 0 0 0 0 0 0 0 127 0" result="hardAlpha"/>
<feOffset/>
<feGaussianBlur stdDeviation="0.137918"/>
<feComposite in2="hardAlpha" operator="arithmetic" k2="-1" k3="1"/>
<feColorMatrix type="matrix" values="0 0 0 0 0 0 0 0 0 0 0 0 0 0 0 0 0 0 0.24 0"/>
<feBlend mode="normal" in2="shape" result="effect1_innerShadow_960_44483"/>
</filter>
<linearGradient id="paint0_linear_960_44483" x1="29.7393" y1="60.7252" x2="36.843" y2="18.3274" gradientUnits="userSpaceOnUse">
<stop stop-color="white"/>
<stop offset="0.586163" stop-color="white" stop-opacity="0.588235"/>
<stop offset="1" stop-color="white"/>
</linearGradient>
</defs>
</svg>
