<svg width="20.000000" height="20.000000" viewBox="0 0 20 20" fill="none" xmlns="http://www.w3.org/2000/svg" xmlns:xlink="http://www.w3.org/1999/xlink">
	<desc>
			Created with Pixso.
	</desc>
	<path d="M0 10.0034C-0.000457764 11.3301 0.25296 12.606 0.760223 13.8315C1.26749 15.0571 1.98999 16.1387 2.9277 17.0767C3.86545 18.0146 4.94699 18.7378 6.17236 19.2456C7.39774 19.7529 8.67361 20.0068 10 20.0068C11.3264 20.0068 12.6023 19.7529 13.8276 19.2456C15.053 18.7378 16.1346 18.0146 17.0723 17.0767C18.01 16.1387 18.7325 15.0571 19.2398 13.8315C19.747 12.606 20.0005 11.3301 20 10.0034C20.0005 8.67725 19.747 7.40088 19.2398 6.17578C18.7325 4.9502 18.01 3.86816 17.0723 2.93018C16.1346 1.99219 15.053 1.26904 13.8276 0.761719C12.6023 0.253906 11.3264 0 10 0C8.67361 0 7.39774 0.253906 6.17236 0.761719C4.94699 1.26904 3.86545 1.99219 2.9277 2.93018C1.98999 3.86816 1.26749 4.9502 0.760223 6.17578C0.25296 7.40088 -0.000457764 8.67725 0 10.0034Z" fill-rule="evenodd" fill="url(#paint_linear_339_858_0)"/>
	<path d="M5.04639 7.72314C5.04639 8.62549 5.4975 9.07617 6.39975 9.07617C7.302 9.07617 7.75314 8.62549 7.75314 7.72314C7.75314 6.8208 7.302 6.36963 6.39975 6.36963C5.4975 6.36963 5.04639 6.8208 5.04639 7.72314Z" fill-rule="evenodd" fill="#231815"/>
	<path d="M12.2468 7.72266C12.2468 8.625 12.6979 9.07617 13.6002 9.07617C14.5024 9.07617 14.9536 8.625 14.9536 7.72266C14.9545 6.81982 14.5033 6.36816 13.6002 6.36816C12.6971 6.36816 12.2459 6.81982 12.2468 7.72266L12.2468 7.72266Z" fill-rule="evenodd" fill="#231815"/>
	<path d="M9.95959 13.2256C8.68271 13.2256 7.4697 12.6724 6.63159 11.7075C6.39819 11.439 6.42676 11.0322 6.69537 10.7988C6.96402 10.5654 7.37097 10.5938 7.60437 10.8623C8.19763 11.5454 9.05606 11.937 9.95959 11.937C10.9033 11.937 11.7862 11.5161 12.3819 10.7827C12.6063 10.5063 13.012 10.4644 13.2883 10.6885C13.5645 10.9131 13.6066 11.3188 13.3823 11.5952C12.5407 12.6313 11.2932 13.2256 9.95959 13.2256Z" fill-rule="evenodd" fill="#FFFFFF"/>
	<defs>
		<linearGradient id="paint_linear_339_858_0" x1="10.000000" y1="0.000000" x2="10.000000" y2="20.006907" gradientUnits="userSpaceOnUse">
			<stop stop-color="#FFAA15"/>
			<stop offset="1.000000" stop-color="#FFC515"/>
		</linearGradient>
	</defs>
</svg>
