<svg width="20.000000" height="20.000000" viewBox="0 0 20 20" fill="none" xmlns="http://www.w3.org/2000/svg" xmlns:xlink="http://www.w3.org/1999/xlink">
	<desc>
			Created with Pixso.
	</desc>
	<path d="M0.760254 13.8313Q-0.000488281 11.993 0 10.0034C-0.000488281 8.67708 0.25293 7.40111 0.760254 6.17555Q1.521 4.33723 2.92773 2.93016Q4.33447 1.52307 6.17236 0.761536Q8.01025 0 10 0Q11.9897 0 13.8276 0.761536Q15.6655 1.52307 17.0723 2.93016C18.0103 3.86821 18.7324 4.95001 19.2397 6.17555C19.7471 7.40111 20.0005 8.67708 20 10.0034C20.0005 11.3298 19.7471 12.6058 19.2397 13.8313C18.7324 15.0569 18.0103 16.1387 17.0723 17.0768Q15.6655 18.4838 13.8276 19.2454Q11.9897 20.0069 10 20.0069Q8.01025 20.0069 6.17236 19.2454C4.94678 18.7377 3.86523 18.0148 2.92773 17.0768Q1.521 15.6697 0.760254 13.8313ZM1.68457 13.4487Q2.36963 15.1031 3.63525 16.3694Q4.90137 17.6357 6.55518 18.3211Q8.20947 19.0064 10 19.0064Q11.7905 19.0064 13.4448 18.3211Q15.0986 17.6357 16.3647 16.3694Q17.6304 15.1031 18.3154 13.4487Q19 11.7943 18.9995 10.0038Q19 8.21259 18.3154 6.5582Q17.6304 4.90379 16.3647 3.6375Q15.0986 2.37119 13.4448 1.68584Q11.7905 1.0005 10 1.0005Q8.20947 1.0005 6.55518 1.68584Q4.90137 2.37119 3.63525 3.6375Q2.36963 4.90379 1.68457 6.5582Q1 8.21259 1.00049 10.0031Q1 11.7943 1.68457 13.4487Z" fill-rule="evenodd" fill="#5F7292"/>
	<path d="M5.04639 7.72281C5.04639 8.62506 5.49756 9.07619 6.3999 9.07619C7.30225 9.07619 7.75293 8.62506 7.75293 7.72281C7.75293 6.82056 7.30225 6.36943 6.3999 6.36943C5.49756 6.36943 5.04639 6.82056 5.04639 7.72281Z" fill="#5F7292"/>
	<path d="M12.2471 7.72279C12.2471 8.62505 12.6982 9.07617 13.6006 9.07617C14.5029 9.07617 14.9536 8.62505 14.9536 7.72279C14.9546 6.81967 14.5034 6.3681 13.6006 6.3681C12.6973 6.3681 12.2461 6.81967 12.2471 7.72279L12.2471 7.72279Z" fill="#5F7292"/>
	<path d="M9.95947 13.2254C8.68262 13.2254 7.46973 12.6721 6.63184 11.7075C6.39795 11.4389 6.42676 11.032 6.69531 10.7985C6.96387 10.5651 7.37109 10.5937 7.60449 10.8623C8.19775 11.5451 9.05615 11.9367 9.95947 11.9367C10.9033 11.9367 11.7861 11.516 12.3818 10.7825C12.6064 10.5062 13.0122 10.4642 13.2881 10.6885C13.5645 10.9128 13.6064 11.3186 13.3823 11.5949C12.5405 12.6311 11.293 13.2254 9.95947 13.2254Z" fill="#5F7292"/>
	<defs/>
</svg>
