<svg width="1920.000000" height="350.000000" viewBox="0 0 1920 350" fill="none" xmlns="http://www.w3.org/2000/svg" xmlns:xlink="http://www.w3.org/1999/xlink">
	<desc>
			Created with Pixso.
	</desc>
	<mask id="mask353_3186" mask-type="alpha" maskUnits="userSpaceOnUse" x="0.000000" y="0.000000" width="1920.000000" height="350.000000">
		<rect width="1920.000000" height="350.000000" fill="#C4C4C4"/>
	</mask>
	<rect width="1920.000000" height="350.000000" fill="url(#paint_linear_114_3444_0)"/>
	<mask id="mask114_3445" mask-type="alpha" maskUnits="userSpaceOnUse" x="0.000000" y="0.000000" width="1920.000000" height="350.000000">
		<rect width="1920.000000" height="350.000000" fill="url(#paint_linear_114_3445_0)"/>
	</mask>
	<g mask="url(#mask114_3445)">
		<path d="M959 414.169L0 185.727L0 405.71L959 414.169Z" fill="url(#paint_linear_114_3416_0)" fill-opacity="0.740000"/>
		<path d="M0 185.727L959 414.169L0 405.71L0 185.727ZM1.00049 404.719L1.00049 186.994L950.155 413.09L1.00049 404.719Z" fill-rule="evenodd" stroke="url(#paint_linear_114_3416_1)"/>
		<path d="M959.611 413.797L410.017 -109.19L297.187 85.0721L959.611 413.797Z" fill="url(#paint_linear_114_3417_0)" fill-opacity="0.740000"/>
		<path d="M410.017 -109.19L959.611 413.797L297.187 85.0721L410.017 -109.19ZM298.586 84.6487L410.232 -107.574L954.054 409.922L298.586 84.6487Z" fill-rule="evenodd" stroke="url(#paint_linear_114_3417_1)"/>
		<path d="M959.577 414.427L871.013 -305L651.924 -212.911L959.577 414.427Z" fill="url(#paint_linear_114_3418_0)" fill-opacity="0.740000"/>
		<path d="M871.013 -305L959.577 414.427L651.924 -212.911L871.013 -305ZM653.289 -212.402L870.16 -303.559L957.826 408.584L653.289 -212.402Z" fill-rule="evenodd" stroke="url(#paint_linear_114_3418_1)"/>
		<path d="M960.793 414.428L1303.82 -238.617L1064.43 -266.131L960.793 414.428Z" fill="url(#paint_linear_114_3419_0)" fill-opacity="0.740000"/>
		<path d="M1303.82 -238.617L960.793 414.428L1064.43 -266.131L1303.82 -238.617ZM1065.27 -265.027L1302.27 -237.789L962.676 408.708L1065.27 -265.027Z" fill-rule="evenodd" stroke="url(#paint_linear_114_3419_1)"/>
		<path d="M961 414.169L1947 185.727L1947 405.71L961 414.169Z" fill="url(#paint_linear_114_3420_0)" fill-opacity="0.740000"/>
		<path d="M1947 185.727L961 414.169L1947 405.71L1947 185.727ZM1946 404.718L1946 186.986L970.088 413.09L1946 404.718Z" fill-rule="evenodd" stroke="url(#paint_linear_114_3420_1)"/>
		<path d="M960.829 413.799L1510.42 -109.192L1623.25 85.0715L960.829 413.799Z" fill="url(#paint_linear_114_3421_0)" fill-opacity="0.740000"/>
		<path d="M1510.42 -109.192L960.829 413.799L1623.25 85.0715L1510.42 -109.192ZM1621.85 84.6481L1510.21 -107.575L966.386 409.924L1621.85 84.6481Z" fill-rule="evenodd" stroke="url(#paint_linear_114_3421_1)"/>
		<path d="M1443.68 380.348L1456.34 334.57C1456.42 334.284 1456.43 333.983 1456.38 333.69L1454.66 323.926C1454.54 323.252 1454.09 322.685 1453.46 322.424L1322.28 268.335C1320.21 267.482 1318.52 270.153 1320.17 271.662L1440.41 381.293C1441.51 382.298 1443.28 381.786 1443.68 380.348Z" fill-rule="evenodd" fill="url(#paint_linear_114_3356_0)"/>
		<path d="M1444.16 380.481Q1443.79 381.829 1442.45 382.217Q1441.1 382.605 1440.07 381.662L1319.83 272.031Q1318.28 270.617 1319.41 268.845Q1320.53 267.073 1322.47 267.873L1453.65 321.962Q1454.92 322.486 1455.16 323.839L1456.87 333.604Q1456.97 334.159 1456.82 334.703L1444.16 380.481ZM1443.2 380.215L1455.86 334.437Q1455.95 334.111 1455.89 333.777L1454.17 324.013Q1454.03 323.201 1453.26 322.886L1322.09 268.797Q1320.93 268.317 1320.25 269.381Q1319.58 270.444 1320.51 271.292L1440.74 380.923Q1441.36 381.489 1442.17 381.256Q1442.97 381.024 1443.2 380.215Z" fill-rule="evenodd" fill="#FFFFFF"/>
		<path d="M1443.71 379.649L1443.6 341.181C1443.6 340.242 1442.95 339.432 1442.03 339.233L1401.2 330.354L1382.6 325.266C1380.56 324.707 1379.16 327.297 1380.75 328.697L1440.39 381.156C1441.69 382.294 1443.72 381.372 1443.71 379.649Z" fill="url(#paint_linear_114_3357_0)"/>
		<path d="M1443.6 341.181C1443.6 340.242 1442.95 339.432 1442.03 339.233L1401.2 330.354L1382.6 325.266C1380.56 324.707 1379.16 327.297 1380.75 328.697L1440.39 381.156C1441.69 382.294 1443.72 381.372 1443.71 379.649L1443.6 341.181Z" stroke="#FFFFFF"/>
		<path d="M1497.16 319.514L1323.69 267.569C1322.51 267.216 1321.86 268.89 1322.96 269.427L1456.1 333.962C1456.33 334.073 1456.6 334.093 1456.84 334.017L1497.18 321.426C1498.12 321.132 1498.11 319.797 1497.16 319.514Z" fill-rule="evenodd" fill="url(#paint_linear_114_3358_0)"/>
		<path d="M1497.31 319.035Q1498.37 319.353 1498.38 320.463Q1498.38 321.573 1497.32 321.904L1456.99 334.494Q1456.42 334.671 1455.89 334.412L1322.75 269.877Q1321.5 269.273 1322 267.983Q1322.5 266.693 1323.83 267.09L1497.31 319.035ZM1497.02 319.993L1323.54 268.048Q1323.1 267.916 1322.93 268.346Q1322.77 268.776 1323.18 268.977L1456.32 333.513Q1456.5 333.599 1456.69 333.54L1497.03 320.949Q1497.38 320.839 1497.38 320.469Q1497.38 320.099 1497.02 319.993Z" fill-rule="evenodd" fill="#FFFFFF"/>
		<path d="M1379.97 362.536L1319.37 271.49C1318.19 269.729 1320.2 267.591 1322.03 268.651L1441.84 338.036C1443.31 338.885 1443.12 341.062 1441.52 341.644L1382.32 363.306C1381.45 363.624 1380.48 363.305 1379.97 362.536Z" fill="url(#paint_linear_114_3359_0)"/>
		<path d="M1319.37 271.49C1318.19 269.729 1320.2 267.591 1322.03 268.651L1441.84 338.036C1443.31 338.885 1443.12 341.062 1441.52 341.644L1382.32 363.306C1381.45 363.624 1380.48 363.305 1379.97 362.536L1319.37 271.49Z" stroke="#FFFFFF"/>
		<path d="M1255.33 252.781C1279.93 238.5 1338.47 215.49 1375.89 237.7C1422.65 265.463 1313.98 234.811 1255.33 252.781Z" fill="url(#paint_linear_114_3361_0)" fill-opacity="0.741176"/>
		<path d="M1375.89 237.7C1338.47 215.49 1279.93 238.5 1255.33 252.781C1283.84 244.047 1324.16 246.799 1352.71 248.747C1382.9 250.808 1399.92 251.969 1375.89 237.7ZM1375.37 238.561Q1350.93 224.046 1311.01 232.535Q1295.63 235.806 1279.66 242.205Q1270.71 245.789 1263 249.738Q1279.91 245.982 1303.99 245.758Q1321.24 245.597 1352.77 247.749Q1367.03 248.722 1372.48 248.897Q1381.14 249.175 1384.39 248.376Q1385.91 248.002 1386.22 247.496Q1386.42 247.151 1385.83 246.312Q1383.97 243.661 1375.37 238.561Z" fill-rule="evenodd" stroke="url(#paint_linear_114_3361_1)"/>
		<path d="M1204 322.5C1229 295.724 1254 282 1265.39 292.674C1274.21 300.944 1236 300.225 1204 322.5Z" fill="url(#paint_linear_114_3362_0)" fill-opacity="0.741176"/>
		<path d="M1265.39 292.674C1254 282 1229 295.724 1204 322.5C1220.71 310.867 1239.12 305.505 1251.63 301.859C1263.08 298.524 1269.6 296.625 1265.39 292.674ZM1264.7 293.404Q1256.87 286.059 1240.25 294.437Q1226.41 301.411 1210.64 317.085Q1219.01 312.197 1229.02 308.253Q1237.32 304.986 1251.35 300.899Q1261.47 297.953 1263.91 296.62Q1265.48 295.757 1265.66 295.063Q1265.81 294.443 1264.7 293.404Z" fill-rule="evenodd" stroke="url(#paint_linear_114_3362_1)"/>
		<path d="M1494 270.305C1555.26 229.462 1600.12 208.867 1635.21 229.462C1655.2 241.194 1563.52 236.849 1494 270.305Z" fill="url(#paint_linear_114_3363_0)" fill-opacity="0.741176"/>
		<path d="M1635.21 229.462C1600.12 208.867 1555.26 229.462 1494 270.305C1532.51 251.77 1577.83 244.837 1607.19 240.345C1630.83 236.729 1644.13 234.695 1635.21 229.462ZM1634.71 230.325Q1622.06 222.902 1606.93 222.412Q1592.46 221.943 1574.74 227.795Q1558.25 233.237 1537.46 244.674Q1523.09 252.576 1504.86 264.365Q1526.39 255.465 1553.8 249.085Q1573.65 244.464 1607.04 239.356Q1628.02 236.147 1633.11 234.555Q1636.63 233.453 1636.98 232.516Q1637.24 231.812 1634.71 230.325Z" fill-rule="evenodd" stroke="url(#paint_linear_114_3363_1)"/>
		<path d="M1070 254.534C1081.15 243.253 1106.68 222.431 1119.57 229.393C1135.68 238.096 1103.59 231.649 1070 254.534Z" fill="url(#paint_linear_114_3364_0)" fill-opacity="0.741176"/>
		<path d="M1119.57 229.393C1106.68 222.431 1081.15 243.253 1070 254.534C1087.68 242.49 1104.94 238.57 1114.98 236.291C1124.02 234.239 1127.2 233.516 1119.57 229.393ZM1119.09 230.273Q1111.06 225.935 1094.65 235.976Q1085.96 241.295 1077.71 248.607Q1085.87 244.065 1095.02 240.808Q1102.86 238.018 1114.76 235.315Q1122.06 233.658 1122.83 232.904L1122.86 232.943Q1122.85 232.861 1122.61 232.604Q1121.8 231.737 1119.09 230.273Z" fill-rule="evenodd" stroke="url(#paint_linear_114_3364_1)"/>
		<g filter="url(#filter_114_3365_dd)">
			<path d="M723.234 278.325C682.234 252.159 584.534 203.925 521.734 220.325C443.234 240.825 646.234 235.825 723.234 278.325Z" fill="url(#paint_linear_114_3365_0)" fill-opacity="0.741176"/>
			<path d="M521.734 220.325C584.534 203.925 682.234 252.159 723.234 278.325C684.237 256.801 612.919 247.46 562.221 240.82C512.817 234.349 482.992 230.443 521.734 220.325ZM521.987 221.293Q508.148 224.907 505.478 227.592Q504.752 228.321 505.249 228.895Q506.129 229.912 509.251 230.995Q515.081 233.018 529.759 235.322Q538.886 236.754 562.351 239.828Q588.996 243.318 603.431 245.465Q628.072 249.13 647.313 253.01Q683.339 260.274 706.787 269.578Q695.564 263.17 682.837 256.813Q656.103 243.458 630.325 234.306Q599.678 223.424 573.807 219.78Q543.909 215.569 521.987 221.293Z" fill-rule="evenodd" stroke="url(#paint_linear_114_3365_1)"/>
		</g>
		<g opacity="0.300000" filter="url(#filter_114_3366_dd)">
			<path d="M334.403 288.514C380.568 254.266 467.825 270.125 519.541 286.51C479.884 277.94 419.187 289.363 375.439 297.597C330.998 305.961 304.047 311.034 334.403 288.514ZM519.541 286.51C526.565 288.735 532.932 290.97 538.453 293.09C532.953 290.181 526.578 288.03 519.541 286.51Z" fill-rule="evenodd" fill="url(#paint_linear_114_3366_0)" fill-opacity="0.741176"/>
			<path d="M375.439 297.597C330.998 305.961 304.047 311.034 334.403 288.514C380.568 254.266 467.825 270.125 519.541 286.51C479.884 277.94 419.187 289.363 375.439 297.597ZM519.541 286.51C526.578 288.03 532.953 290.181 538.453 293.09C532.932 290.97 526.565 288.735 519.541 286.51ZM494.224 280.394Q500.016 281.842 505.565 283.384Q487.152 281.542 462.5 283.471Q442.787 285.014 417.351 289.1Q402.491 291.488 375.254 296.614Q354.142 300.587 345.855 301.885Q332.543 303.969 326.931 303.638Q323.967 303.463 322.927 302.688Q322.209 302.152 322.685 300.989Q324.175 297.347 334.999 289.317L334.999 289.317Q353.266 275.766 382.067 271.313Q407.007 267.458 438.68 270.561Q465.331 273.171 494.224 280.394Z" fill-rule="evenodd" stroke="url(#paint_linear_114_3366_1)"/>
		</g>
		<g opacity="0.300000">
			<path d="M838.998 272.841C827.587 256.618 799.765 224.021 779.771 223.411C759.776 222.8 810.924 256.11 838.998 272.841Z" fill="url(#paint_linear_114_3367_0)" fill-opacity="0.741176"/>
			<path d="M779.771 223.411C799.765 224.021 827.587 256.618 838.998 272.841C810.924 256.11 759.776 222.8 779.771 223.411ZM779.74 224.411Q776.735 224.319 776.311 225.135Q775.931 225.866 777.448 227.932Q780.737 232.41 791.959 240.822Q808.986 253.586 835.346 269.485Q824.644 254.993 811.917 242.999Q792.607 224.803 779.74 224.411Z" fill-rule="evenodd" stroke="url(#paint_linear_114_3367_1)"/>
		</g>
		<path d="M1040.07 315.148L1126.07 268.409C1128.07 267.323 1130.5 268.77 1130.5 271.045L1130.5 411.216C1130.5 412.316 1129.9 413.327 1128.93 413.852L1042.93 460.591C1040.93 461.678 1038.5 460.23 1038.5 457.955L1038.5 317.784C1038.5 316.685 1039.1 315.673 1040.07 315.148Z" fill="url(#paint_linear_114_3369_0)"/>
		<path d="M1126.07 268.409C1128.07 267.323 1130.5 268.77 1130.5 271.045L1130.5 411.216C1130.5 412.316 1129.9 413.327 1128.93 413.852L1042.93 460.591C1040.93 461.678 1038.5 460.23 1038.5 457.955L1038.5 317.784C1038.5 316.685 1039.1 315.673 1040.07 315.148L1126.07 268.409Z" stroke="url(#paint_linear_114_3369_1)" stroke-linejoin="round"/>
		<rect x="878.000000" y="265.999756" rx="3.000000" width="252.000000" height="147.000000" fill="url(#paint_linear_114_3371_0)"/>
		<rect x="878.000000" y="265.999756" rx="3.000000" width="252.000000" height="147.000000" stroke="url(#paint_linear_114_3371_1)" stroke-linejoin="round"/>
		<g filter="url(#filter_114_3372_dd)">
			<path d="M786.229 316.604L867.969 272.18C870.643 270.726 873.532 273.72 871.985 276.341L822.281 360.523C822.097 360.835 821.832 361.091 821.514 361.264L736.354 407.546C734.571 408.515 732.645 406.52 733.677 404.772L785.078 317.714C785.354 317.247 785.752 316.863 786.229 316.604Z" fill="url(#paint_linear_114_3372_0)" fill-opacity="0.741176"/>
			<path d="M867.969 272.18L786.229 316.604C785.752 316.863 785.354 317.247 785.078 317.714L733.677 404.772C732.645 406.52 734.571 408.515 736.354 407.546L821.514 361.264C821.832 361.091 822.097 360.835 822.281 360.523L871.985 276.341C873.532 273.72 870.643 270.726 867.969 272.18ZM868.447 273.059L786.707 317.483Q786.221 317.747 785.94 318.223L734.538 405.281Q734.152 405.936 734.68 406.483Q735.208 407.031 735.876 406.667L821.036 360.385Q821.279 360.253 821.42 360.015L871.123 275.832Q871.897 274.522 870.84 273.427Q869.784 272.332 868.447 273.059Z" fill-rule="evenodd" stroke="url(#paint_linear_114_3372_1)"/>
		</g>
		<path d="M788 316L880 266L880 413L788 463L788 316Z" fill="url(#paint_linear_114_3373_0)"/>
		<path d="M880 266L880 413L788 463L788 316L880 266Z" stroke="url(#paint_linear_114_3373_1)" stroke-linejoin="round"/>
		<g filter="url(#filter_114_3374_dd)">
			<path d="M1022.09 258.079C1032.08 265.928 1038.54 277.424 1040.05 290.037L992.496 295.736L944.94 301.436C943.428 288.823 946.989 276.127 954.838 266.139C962.688 256.152 974.183 249.692 986.796 248.18C999.409 246.668 1012.11 250.229 1022.09 258.079Z" fill-rule="evenodd" fill="#FFFFFF" fill-opacity="0.700000"/>
			<path d="M1022.4 257.686Q1038.16 270.073 1040.55 289.977Q1040.55 290.026 1040.55 290.075Q1040.55 290.124 1040.53 290.172Q1040.52 290.219 1040.5 290.263Q1040.48 290.307 1040.44 290.346Q1040.41 290.384 1040.38 290.416Q1040.34 290.448 1040.3 290.472Q1040.25 290.497 1040.21 290.512Q1040.16 290.527 1040.11 290.533L992.555 296.233L944.999 301.933Q944.95 301.939 944.901 301.935Q944.852 301.931 944.805 301.918Q944.757 301.904 944.713 301.882Q944.669 301.86 944.631 301.829Q944.592 301.799 944.56 301.762Q944.528 301.724 944.504 301.681Q944.48 301.638 944.464 301.591Q944.449 301.545 944.443 301.496Q942.058 281.591 954.445 265.83Q966.833 250.069 986.737 247.683Q1006.64 245.298 1022.4 257.686ZM1021.78 258.472Q1006.35 246.34 986.856 248.676Q967.363 251.013 955.231 266.448Q943.255 281.687 945.379 300.88L992.436 295.24L1039.49 289.6Q1037.02 270.448 1021.78 258.472Z" fill-rule="evenodd" fill="#E19EFF"/>
		</g>
		<mask id="mask114_3376" mask-type="alpha" maskUnits="userSpaceOnUse" x="937.063110" y="247.014114" width="78.219124" height="86.354683">
			<path d="M1040.37 289.262C1041.9 301.993 1038.31 314.809 1030.38 324.89C1022.46 334.97 1010.86 341.491 998.125 343.017C985.394 344.542 972.579 340.948 962.498 333.025C952.417 325.102 945.897 313.499 944.371 300.768L992.373 295.015L1040.37 289.262Z" fill="#FFFFFF"/>
		</mask>
		<g mask="url(#mask114_3376)">
			<path d="M1030.38 324.889C1038.31 314.809 1041.9 301.993 1040.37 289.262L992.372 295.015L944.371 300.768C945.897 313.499 952.417 325.102 962.498 333.025C972.579 340.948 985.394 344.542 998.125 343.017C1010.86 341.491 1022.46 334.97 1030.38 324.889Z" fill-rule="evenodd" fill="url(#paint_linear_114_3377_0)"/>
			<path d="M1035.1 328.597Q1021.19 346.296 998.839 348.974Q976.489 351.652 958.791 337.742Q941.092 323.832 938.414 301.482Q938.396 301.335 938.386 301.188Q938.376 301.042 938.372 300.894Q938.369 300.747 938.373 300.6Q938.378 300.453 938.389 300.306Q938.4 300.159 938.419 300.013Q938.437 299.867 938.463 299.722Q938.489 299.577 938.521 299.433Q938.554 299.289 938.594 299.148Q938.634 299.006 938.68 298.866Q938.727 298.726 938.781 298.589Q938.834 298.452 938.894 298.317Q938.954 298.183 939.021 298.052Q939.088 297.92 939.161 297.792Q939.234 297.664 939.313 297.54Q939.392 297.416 939.478 297.296Q939.563 297.176 939.654 297.06Q939.745 296.944 939.841 296.833Q939.938 296.722 940.04 296.616Q940.142 296.509 940.249 296.408Q940.356 296.307 940.468 296.211Q940.58 296.115 940.696 296.025Q940.812 295.935 940.933 295.85Q941.054 295.766 941.179 295.688Q941.303 295.609 941.432 295.537Q941.56 295.465 941.692 295.399Q941.824 295.333 941.959 295.274Q942.094 295.215 942.231 295.162Q942.369 295.11 942.509 295.064Q942.649 295.018 942.791 294.98Q942.933 294.941 943.077 294.909Q943.221 294.877 943.366 294.853Q943.511 294.828 943.657 294.81L991.658 289.058L1039.66 283.305Q1039.81 283.287 1039.95 283.277Q1040.1 283.267 1040.25 283.264Q1040.39 283.26 1040.54 283.265Q1040.69 283.269 1040.84 283.28Q1040.98 283.291 1041.13 283.31Q1041.27 283.328 1041.42 283.354Q1041.56 283.38 1041.71 283.413Q1041.85 283.445 1041.99 283.485Q1042.14 283.525 1042.28 283.572Q1042.41 283.618 1042.55 283.672Q1042.69 283.725 1042.82 283.785Q1042.96 283.845 1043.09 283.912Q1043.22 283.979 1043.35 284.052Q1043.48 284.125 1043.6 284.204Q1043.73 284.283 1043.85 284.369Q1043.97 284.454 1044.08 284.545Q1044.2 284.636 1044.31 284.732Q1044.42 284.829 1044.53 284.931Q1044.63 285.033 1044.73 285.14Q1044.83 285.247 1044.93 285.359Q1045.03 285.471 1045.12 285.587Q1045.21 285.704 1045.29 285.824Q1045.38 285.945 1045.45 286.07Q1045.53 286.194 1045.6 286.323Q1045.68 286.451 1045.74 286.583Q1045.81 286.715 1045.87 286.85Q1045.93 286.985 1045.98 287.122Q1046.03 287.26 1046.08 287.4Q1046.12 287.54 1046.16 287.682Q1046.2 287.824 1046.23 287.968Q1046.26 288.112 1046.29 288.257Q1046.31 288.402 1046.33 288.548Q1049.01 310.899 1035.1 328.597ZM1025.66 321.182Q1034.6 309.812 1034.75 295.979L993.086 300.972L951.422 305.966Q954.836 319.372 966.206 328.307Q979.996 339.146 997.411 337.059Q1014.83 334.972 1025.66 321.182Z" fill-rule="evenodd" fill="#FFFFFF"/>
		</g>
		<path d="M1037.08 295.388C1039.26 293.31 1040.27 291.249 1040.04 289.305C1039.81 287.361 1038.33 285.598 1035.72 284.093C1033.12 282.592 1029.45 281.385 1024.97 280.534C1015.99 278.832 1003.82 278.567 990.593 280.153C977.362 281.739 965.602 284.871 957.284 288.645C953.123 290.533 949.843 292.573 947.67 294.646C945.492 296.725 944.476 298.786 944.709 300.73C944.942 302.674 946.416 304.437 949.023 305.942C951.625 307.442 955.295 308.649 959.784 309.501C968.757 311.202 980.925 311.467 994.155 309.882C1007.39 308.296 1019.15 305.163 1027.46 301.389C1031.62 299.501 1034.91 297.462 1037.08 295.388Z" fill-rule="evenodd" fill="#FFFFFF"/>
		<path d="M1037.42 295.75Q1034.09 298.933 1027.67 301.845Q1014.12 307.992 994.215 310.378Q974.307 312.764 959.69 309.992Q952.767 308.679 948.774 306.375Q944.594 303.962 944.213 300.789Q943.833 297.616 947.325 294.284Q950.661 291.101 957.078 288.19Q970.626 282.043 990.533 279.657Q1010.44 277.271 1025.06 280.043Q1031.98 281.355 1035.97 283.66Q1040.16 286.073 1040.54 289.245Q1040.92 292.418 1037.42 295.75ZM1036.73 295.027Q1039.86 292.04 1039.54 289.364Q1039.22 286.689 1035.47 284.526Q1031.63 282.306 1024.87 281.025Q1010.41 278.282 990.652 280.649Q970.898 283.017 957.491 289.1Q951.229 291.942 948.015 295.008Q944.885 297.994 945.206 300.67Q945.527 303.346 949.273 305.508Q953.12 307.728 959.877 309.009Q974.341 311.752 994.096 309.385Q1013.85 307.017 1027.26 300.934Q1033.52 298.092 1036.73 295.027Z" fill-rule="evenodd" fill="#E19EFF"/>
		<path d="M1032.49 294.338C1034.5 292.752 1035.4 291.238 1035.24 289.878C1035.07 288.517 1033.84 287.26 1031.51 286.192C1029.21 285.134 1025.94 284.313 1021.93 283.769C1013.9 282.684 1002.98 282.723 991.071 284.151C979.161 285.578 968.541 288.121 960.999 291.072C957.226 292.548 954.242 294.119 952.254 295.692C950.248 297.278 949.345 298.792 949.508 300.152C949.671 301.512 950.907 302.77 953.231 303.837C955.534 304.896 958.805 305.717 962.82 306.26C970.845 307.345 981.766 307.306 993.675 305.879C1005.58 304.451 1016.21 301.909 1023.75 298.958C1027.52 297.482 1030.5 295.911 1032.49 294.338Z" fill-rule="evenodd" fill="url(#paint_linear_114_3380_0)"/>
		<path d="M1032.8 294.731Q1029.74 297.149 1023.93 299.424Q1011.65 304.228 993.735 306.375Q975.819 308.523 962.753 306.755Q956.564 305.919 953.022 304.292Q949.296 302.58 949.012 300.212Q948.728 297.843 951.944 295.299Q955.001 292.881 960.817 290.606Q973.095 285.802 991.011 283.654Q1008.93 281.507 1021.99 283.274Q1028.18 284.111 1031.72 285.738Q1035.45 287.45 1035.73 289.818Q1036.02 292.187 1032.8 294.731ZM1032.18 293.946Q1034.96 291.75 1034.74 289.937Q1034.52 288.125 1031.31 286.646Q1027.9 285.082 1021.86 284.265Q1008.92 282.515 991.13 284.647Q973.34 286.779 961.181 291.537Q955.504 293.758 952.564 296.084Q949.787 298.28 950.005 300.093Q950.222 301.905 953.439 303.383Q956.846 304.948 962.887 305.765Q975.827 307.514 993.616 305.382Q1011.4 303.25 1023.56 298.492Q1029.24 296.272 1032.18 293.946Z" fill-rule="evenodd" fill="#E19EFF"/>
		<circle cx="1016.311157" cy="293.349792" r="2.777581" fill="#FFFFFF"/>
		<circle cx="1008.345154" cy="295.541687" r="1.853209" fill="#FFFFFF"/>
		<circle cx="1003.230103" cy="299.907379" r="1.029565" fill="#FFFFFF"/>
		<path d="M938.784 313.441C938.929 313.992 938.378 314.433 937.873 314.17L932.9 311.581C932.695 311.474 932.454 311.48 932.264 311.596L927.661 314.407C927.194 314.692 926.584 314.278 926.653 313.723L927.334 308.249C927.362 308.023 927.272 307.793 927.096 307.641L922.824 303.953C922.39 303.578 922.565 302.882 923.112 302.801L928.506 302.007C928.728 301.974 928.913 301.827 928.994 301.616L930.957 296.526C931.156 296.01 931.874 295.993 932.143 296.499L934.796 301.482C934.905 301.688 935.109 301.826 935.336 301.849L940.821 302.391C941.378 302.446 941.647 303.132 941.266 303.525L937.511 307.399C937.356 307.559 937.298 307.792 937.357 308.016L938.784 313.441Z" fill="url(#paint_linear_114_3386_0)"/>
		<path d="M946.118 267.778C949.903 267.017 952.941 270.92 951.271 274.4L942.602 292.473C941.941 293.851 941.997 295.468 942.752 296.802L952.651 314.299C954.557 317.667 951.795 321.751 947.966 321.226L928.077 318.501C926.56 318.293 925.041 318.84 924.008 319.967L910.468 334.733C907.861 337.576 903.117 336.197 902.42 332.393L898.797 312.635C898.521 311.129 897.526 309.85 896.133 309.212L877.866 300.842C874.349 299.23 874.178 294.294 877.576 292.468L895.226 282.982C896.572 282.259 897.477 280.921 897.648 279.401L899.898 259.461C900.332 255.622 904.97 253.951 907.768 256.626L922.299 270.521C923.407 271.581 924.961 272.032 926.46 271.731L946.118 267.778Z" fill="url(#paint_linear_114_3387_0)"/>
		<g filter="url(#filter_114_3388_dd)">
			<path d="M965.456 287.552C969.31 287.797 971.234 292.352 968.72 295.281L955.666 310.491C954.67 311.651 954.306 313.227 954.689 314.711L959.723 334.169C960.692 337.916 956.967 341.144 953.403 339.647L934.894 331.868C933.483 331.275 931.873 331.41 930.584 332.231L913.68 342.987C910.426 345.058 906.199 342.498 906.51 338.644L908.126 318.626C908.249 317.1 907.619 315.607 906.439 314.631L890.958 301.82C887.977 299.353 889.091 294.542 892.846 293.658L912.354 289.065C913.841 288.715 915.061 287.657 915.621 286.233L922.957 267.559C924.37 263.964 929.284 263.55 931.294 266.858L941.735 284.037C942.531 285.347 943.915 286.186 945.441 286.282L965.456 287.552Z" fill="url(#paint_linear_114_3388_0)"/>
			<path d="M968.72 295.281C971.234 292.352 969.31 287.797 965.456 287.552L945.441 286.282C943.915 286.186 942.531 285.347 941.735 284.037L931.294 266.858C929.284 263.55 924.37 263.964 922.957 267.559L915.621 286.233C915.061 287.657 913.841 288.715 912.354 289.065L892.846 293.658C889.091 294.542 887.977 299.353 890.958 301.82L906.439 314.631C907.619 315.607 908.249 317.1 908.126 318.626L906.51 338.644C906.199 342.498 910.426 345.058 913.68 342.987L930.584 332.231C931.873 331.41 933.483 331.275 934.894 331.868L953.403 339.647C956.967 341.144 960.692 337.916 959.723 334.169L954.689 314.711C954.306 313.227 954.67 311.651 955.666 310.491L968.72 295.281ZM967.96 294.629Q969.443 292.902 968.554 290.798Q967.665 288.695 965.393 288.55L945.378 287.281Q942.422 287.093 940.879 284.556L930.439 267.377Q929.253 265.426 926.986 265.617Q924.721 265.807 923.889 267.925L916.552 286.599Q915.468 289.359 912.583 290.039L893.076 294.632Q890.864 295.153 890.351 297.371Q889.837 299.594 891.596 301.05L907.077 313.86Q909.362 315.752 909.124 318.707L907.508 338.725Q907.324 341 909.277 342.182Q911.226 343.363 913.143 342.143L930.047 331.387Q932.546 329.796 935.282 330.946L953.79 338.725Q955.89 339.607 957.607 338.119Q959.325 336.629 958.754 334.419L953.721 314.96Q952.977 312.087 954.906 309.84L967.96 294.629Z" fill-rule="evenodd" stroke="url(#paint_linear_114_3388_1)"/>
		</g>
		<path d="M819.08 259.628L819.083 259.626C819.395 259.377 819.446 258.923 819.197 258.61L813.448 251.402C813.199 251.09 812.745 251.039 812.432 251.287L812.43 251.29C812.118 251.539 812.067 251.993 812.315 252.305L818.065 259.514C818.314 259.825 818.768 259.877 819.08 259.628Z" fill="#70F6FF"/>
		<g filter="url(#filter_114_3392_dd)">
			<path d="M815.427 253.39L832.764 264.525C832.857 264.588 832.934 264.672 832.989 264.771C833.044 264.869 833.076 264.979 833.081 265.091C833.087 265.204 833.067 265.316 833.022 265.419C832.976 265.523 832.908 265.614 832.822 265.687L821.935 274.372C821.844 274.44 821.74 274.486 821.629 274.507C821.519 274.528 821.404 274.523 821.296 274.492C821.188 274.461 821.088 274.406 821.004 274.33C820.921 274.255 820.856 274.161 820.815 274.056L813.811 254.678C813.736 254.464 813.729 254.231 813.792 254.013C813.855 253.795 813.984 253.602 814.162 253.46C814.339 253.319 814.556 253.236 814.783 253.223C815.009 253.211 815.234 253.269 815.427 253.39Z" fill="url(#paint_linear_114_3391_0)"/>
		</g>
		<path d="M832.901 264.322Q833.091 264.451 833.203 264.651Q833.314 264.85 833.326 265.078Q833.337 265.307 833.246 265.516Q833.154 265.727 832.979 265.874Q832.977 265.876 832.974 265.878L822.087 274.563Q822.085 274.565 822.082 274.567Q821.898 274.706 821.674 274.747Q821.451 274.79 821.23 274.728Q821.008 274.664 820.84 274.511Q820.67 274.358 820.587 274.144Q820.586 274.141 820.585 274.138L813.581 254.76Q813.438 254.354 813.557 253.944Q813.675 253.535 814.009 253.268Q814.343 253.002 814.77 252.979Q815.195 252.955 815.557 253.182L832.896 264.318Q832.899 264.32 832.901 264.322ZM815.296 253.597L832.628 264.728Q832.721 264.792 832.775 264.889Q832.831 264.989 832.837 265.103Q832.842 265.217 832.797 265.321Q832.752 265.424 832.666 265.497L821.785 274.178Q821.694 274.246 821.585 274.266Q821.472 274.287 821.362 274.256Q821.253 274.225 821.169 274.149Q821.085 274.073 821.044 273.969L814.041 254.594Q813.952 254.34 814.027 254.081Q814.102 253.82 814.314 253.651Q814.526 253.482 814.796 253.467Q815.067 253.452 815.296 253.597Z" fill-rule="evenodd" fill="#5869FF"/>
		<g filter="url(#filter_114_3395_dd)">
			<path d="M905.018 367.376L905.021 367.374C906.895 365.879 907.203 363.148 905.708 361.274L899.151 353.053C897.656 351.178 894.925 350.871 893.051 352.366L893.048 352.368C891.174 353.863 890.867 356.594 892.362 358.468L898.919 366.689C900.413 368.563 903.144 368.871 905.018 367.376Z" fill="url(#paint_linear_114_3394_0)"/>
		</g>
		<path d="M905.174 367.565L905.174 367.565L905.171 367.567Q903.686 368.751 901.799 368.539Q899.911 368.326 898.727 366.841L892.17 358.62Q890.986 357.135 891.198 355.248Q891.411 353.361 892.896 352.176L892.899 352.174Q894.383 350.99 896.271 351.202Q898.158 351.415 899.342 352.9L905.899 361.121Q907.084 362.606 906.871 364.493Q906.659 366.381 905.174 367.565ZM904.869 367.182Q906.195 366.124 906.385 364.438Q906.575 362.753 905.517 361.426L898.96 353.205Q896.406 350.003 893.204 352.557L893.201 352.56Q889.999 355.113 892.553 358.315L899.11 366.536Q901.664 369.738 904.866 367.184L904.869 367.182L904.869 367.182Z" fill-rule="evenodd" fill="#3733FF"/>
		<g filter="url(#filter_114_3398_dd)">
			<path d="M822.561 273.87L832.196 266.17C832.373 266.028 832.577 265.923 832.796 265.86C833.014 265.798 833.243 265.78 833.469 265.806C833.695 265.832 833.913 265.903 834.111 266.014C834.31 266.126 834.484 266.275 834.624 266.454L901.694 352.096C902.817 353.534 903.328 355.357 903.115 357.17C902.902 358.982 901.983 360.637 900.557 361.776L900.557 361.776C899.13 362.912 897.314 363.439 895.501 363.244C893.688 363.049 892.025 362.148 890.872 360.735L822.299 276.3C822.156 276.123 822.05 275.92 821.985 275.703C821.921 275.485 821.9 275.256 821.924 275.03C821.949 274.805 822.018 274.586 822.127 274.387C822.236 274.188 822.384 274.012 822.561 273.87L822.561 273.87Z" fill="url(#paint_linear_114_3397_0)"/>
		</g>
		<path d="M832.043 265.978Q832.351 265.733 832.728 265.625Q833.107 265.518 833.497 265.563Q833.888 265.609 834.231 265.801Q834.575 265.995 834.817 266.303L901.887 351.945Q903.702 354.27 903.358 357.198Q903.014 360.127 900.71 361.968Q898.404 363.803 895.474 363.488Q892.545 363.173 890.682 360.89L822.109 276.454Q821.862 276.149 821.75 275.772Q821.639 275.395 821.681 275.004Q821.724 274.612 821.912 274.269Q822.102 273.924 822.409 273.679L832.043 265.979L832.043 265.978ZM832.348 266.361L832.348 266.361L822.714 274.062Q822.484 274.246 822.341 274.504Q822.2 274.762 822.168 275.057Q822.136 275.35 822.219 275.633Q822.304 275.917 822.489 276.146L891.062 360.58Q892.797 362.707 895.527 363.001Q898.256 363.294 900.404 361.585Q902.551 359.87 902.872 357.141Q903.192 354.412 901.501 352.247L834.431 266.605Q834.25 266.373 833.992 266.228Q833.734 266.084 833.44 266.049Q833.147 266.015 832.863 266.096Q832.58 266.177 832.348 266.361Z" fill-rule="evenodd" stroke="url(#paint_linear_114_3399_0)" stroke-width="0.489543" stroke-linejoin="round" stroke-linecap="round"/>
		<g filter="url(#filter_114_3401_dd)">
			<path d="M860.224 312.721L860.692 312.348C862.223 311.127 862.474 308.896 861.253 307.365L839.151 279.654C837.93 278.123 835.699 277.872 834.168 279.093L833.701 279.466C832.17 280.686 831.919 282.917 833.14 284.448L855.242 312.16C856.463 313.691 858.693 313.942 860.224 312.721Z" fill="url(#paint_radial_114_3400_0)"/>
		</g>
		<path d="M860.768 312.443L860.301 312.816Q859.113 313.764 857.603 313.594Q856.094 313.424 855.147 312.236L833.044 284.524Q832.097 283.336 832.267 281.826Q832.437 280.317 833.624 279.37L834.092 278.997Q836.96 276.71 839.247 279.577L861.349 307.289Q862.296 308.477 862.126 309.986Q861.956 311.496 860.768 312.443L860.768 312.443ZM860.616 312.252Q861.724 311.368 861.883 309.959Q862.042 308.55 861.158 307.441L839.055 279.729Q836.921 277.054 834.245 279.188L833.777 279.561Q832.669 280.445 832.51 281.854Q832.351 283.263 833.236 284.371L855.338 312.083Q856.222 313.192 857.631 313.35Q859.04 313.509 860.148 312.625L860.616 312.252L860.616 312.252Z" fill-rule="evenodd" fill="#8729FF"/>
		<path d="M845.859 294.324L845.955 294.247C846.729 293.63 846.855 292.503 846.239 291.73L837.805 281.156C837.189 280.383 836.062 280.256 835.289 280.873L835.192 280.95C834.418 281.567 834.292 282.694 834.908 283.467L843.342 294.041C843.958 294.814 845.085 294.941 845.859 294.324Z" fill="#FFFFFF"/>
		<path d="M845.859 294.324L845.955 294.247C846.729 293.63 846.855 292.503 846.239 291.73L837.805 281.156C837.189 280.383 836.062 280.256 835.289 280.873L835.192 280.95C834.418 281.567 834.292 282.694 834.908 283.467L843.342 294.041C843.958 294.814 845.085 294.941 845.859 294.324Z" fill="url(#paint_linear_114_3404_0)"/>
		<path d="M846.108 294.438L846.108 294.438L846.011 294.516Q845.352 295.041 844.514 294.947Q843.676 294.852 843.15 294.193L834.717 283.619Q834.191 282.96 834.285 282.123Q834.38 281.284 835.039 280.759L835.136 280.681Q835.795 280.156 836.633 280.25Q837.471 280.344 837.997 281.004L846.43 291.578Q847.699 293.169 846.108 294.438ZM845.802 294.056Q847.011 293.092 846.047 291.883L837.614 281.309Q837.215 280.808 836.578 280.737Q835.942 280.665 835.441 281.064L835.344 281.142Q834.844 281.541 834.772 282.177Q834.7 282.814 835.099 283.314L843.533 293.888Q843.932 294.389 844.569 294.46Q845.205 294.532 845.706 294.133L845.802 294.056L845.802 294.056Z" fill-rule="evenodd" fill="#8729FF"/>
		<path d="M853.53 306.818C854.168 307.618 855.334 307.749 856.134 307.111C856.934 306.473 857.066 305.308 856.427 304.507L849.42 295.721C848.782 294.922 847.616 294.79 846.816 295.428C846.016 296.066 845.885 297.232 846.523 298.032L853.53 306.818Z" fill="#FFFFFF"/>
		<path d="M853.53 306.818C854.168 307.618 855.334 307.749 856.134 307.111C856.934 306.473 857.066 305.308 856.427 304.507L849.42 295.721C848.782 294.922 847.616 294.79 846.816 295.428C846.016 296.066 845.885 297.232 846.523 298.032L853.53 306.818Z" fill="url(#paint_linear_114_3407_0)"/>
		<path d="M856.286 307.303Q855.607 307.844 854.744 307.747Q853.881 307.65 853.339 306.97L846.332 298.185Q845.023 296.545 846.663 295.237Q848.303 293.929 849.612 295.569L856.619 304.355Q857.161 305.034 857.063 305.898Q856.966 306.761 856.287 307.303L856.286 307.303ZM855.981 306.92Q856.502 306.505 856.577 305.843Q856.651 305.181 856.236 304.66L849.229 295.874Q848.226 294.617 846.968 295.62Q845.711 296.623 846.714 297.88L853.721 306.665Q854.137 307.186 854.799 307.261Q855.461 307.335 855.981 306.92L855.981 306.92Z" fill-rule="evenodd" fill="#8729FF"/>
		<g filter="url(#filter_114_3410_dd)">
			<path d="M822.879 275.907L834.117 266.944C834.659 266.512 834.748 265.723 834.317 265.182C833.885 264.641 833.096 264.553 832.555 264.985L821.316 273.948C820.775 274.38 820.685 275.169 821.117 275.71C821.548 276.251 822.337 276.339 822.879 275.907Z" fill="url(#paint_linear_114_3409_0)"/>
		</g>
		<path d="M834.269 267.135L834.269 267.135L823.031 276.099Q822.546 276.486 821.929 276.417Q821.312 276.348 820.926 275.863Q820.538 275.378 820.608 274.761Q820.678 274.144 821.164 273.757L832.402 264.794Q833.574 263.859 834.508 265.03Q834.895 265.515 834.825 266.132Q834.755 266.748 834.269 267.135ZM833.964 266.753Q834.292 266.492 834.339 266.076Q834.386 265.661 834.125 265.335Q833.497 264.547 832.707 265.177L821.469 274.14Q821.142 274.401 821.095 274.816Q821.048 275.231 821.308 275.557Q821.568 275.884 821.984 275.931Q822.399 275.977 822.726 275.716L833.964 266.753L833.964 266.753Z" fill-rule="evenodd" fill="#2958FF"/>
		<rect x="786.000000" y="315.999634" rx="3.000000" width="254.000000" height="147.000000" fill="url(#paint_linear_114_3413_0)"/>
		<rect x="786.000000" y="315.999634" rx="3.000000" width="254.000000" height="147.000000" stroke="url(#paint_linear_114_3413_1)" stroke-linejoin="round"/>
		<g filter="url(#filter_114_3414_dd)">
			<path d="M1042.16 314.284L1128.8 267.196C1130.07 266.503 1131.66 266.822 1132.57 267.953L1173.75 319.2C1174.92 320.658 1174.49 322.821 1172.84 323.715L1086.2 370.803C1084.93 371.496 1083.34 371.177 1082.43 370.046L1041.25 318.799C1040.08 317.341 1040.51 315.178 1042.16 314.284Z" fill="#EAE7FF" fill-opacity="0.200000"/>
			<path d="M1128.8 267.196C1130.07 266.503 1131.66 266.822 1132.57 267.953L1173.75 319.2C1174.92 320.658 1174.49 322.821 1172.84 323.715L1086.2 370.803C1084.93 371.496 1083.34 371.177 1082.43 370.046L1041.25 318.799C1040.08 317.341 1040.51 315.178 1042.16 314.284L1128.8 267.196Z" stroke="url(#paint_linear_114_3414_0)"/>
		</g>
	</g>
	<defs>
		<filter id="filter_114_3365_dd" x="492.526215" y="205.526123" width="242.181976" height="84.272888" filterUnits="userSpaceOnUse" color-interpolation-filters="sRGB">
			<feFlood flood-opacity="0" result="BackgroundImageFix"/>
			<feGaussianBlur in="BackgroundImage" stdDeviation="10.3312"/>
			<feComposite in2="SourceAlpha" operator="in" result="effect_backgroundBlur_1"/>
			<feBlend mode="normal" in="SourceGraphic" in2="effect_backgroundBlur_1" result="shape"/>
		</filter>
		<filter id="filter_114_3366_dd" x="306.526276" y="234.526169" width="243.400482" height="104.799026" filterUnits="userSpaceOnUse" color-interpolation-filters="sRGB">
			<feFlood flood-opacity="0" result="BackgroundImageFix"/>
			<feGaussianBlur in="BackgroundImage" stdDeviation="2.33333"/>
			<feComposite in2="SourceAlpha" operator="in" result="effect_backgroundBlur_1"/>
			<feBlend mode="normal" in="SourceGraphic" in2="effect_backgroundBlur_1" result="shape"/>
		</filter>
		<filter id="filter_114_3372_dd" x="718.526306" y="255.526047" width="170.447388" height="166.947433" filterUnits="userSpaceOnUse" color-interpolation-filters="sRGB">
			<feFlood flood-opacity="0" result="BackgroundImageFix"/>
			<feGaussianBlur in="BackgroundImage" stdDeviation="2.66333"/>
			<feComposite in2="SourceAlpha" operator="in" result="effect_backgroundBlur_1"/>
			<feBlend mode="normal" in="SourceGraphic" in2="effect_backgroundBlur_1" result="shape"/>
		</filter>
		<filter id="filter_114_3374_dd" x="926.263062" y="222.262848" width="126.765747" height="126.767059" filterUnits="userSpaceOnUse" color-interpolation-filters="sRGB">
			<feFlood flood-opacity="0" result="BackgroundImageFix"/>
			<feGaussianBlur in="BackgroundImage" stdDeviation="2.66667"/>
			<feComposite in2="SourceAlpha" operator="in" result="effect_backgroundBlur_1"/>
			<feBlend mode="normal" in="SourceGraphic" in2="effect_backgroundBlur_1" result="shape"/>
		</filter>
		<filter id="filter_114_3388_dd" x="870.990662" y="241.592834" width="125.730652" height="127.666016" filterUnits="userSpaceOnUse" color-interpolation-filters="sRGB">
			<feFlood flood-opacity="0" result="BackgroundImageFix"/>
			<feGaussianBlur in="BackgroundImage" stdDeviation="8.24955"/>
			<feComposite in2="SourceAlpha" operator="in" result="effect_backgroundBlur_1"/>
			<feBlend mode="normal" in="SourceGraphic" in2="effect_backgroundBlur_1" result="shape"/>
		</filter>
		<filter id="filter_114_3392_dd" x="808.871460" y="251.802246" width="27.052063" height="25.844818" filterUnits="userSpaceOnUse" color-interpolation-filters="sRGB">
			<feFlood flood-opacity="0" result="BackgroundImageFix"/>
			<feGaussianBlur stdDeviation="0.407952" result="effect_layerBlur_1"/>
			<feGaussianBlur stdDeviation="0.407952" result="effect_layerBlur_2"/>
		</filter>
		<filter id="filter_114_3395_dd" x="888.071777" y="349.417877" width="21.926086" height="20.905701" filterUnits="userSpaceOnUse" color-interpolation-filters="sRGB">
			<feFlood flood-opacity="0" result="BackgroundImageFix"/>
			<feGaussianBlur stdDeviation="0.407952" result="effect_layerBlur_1"/>
			<feGaussianBlur stdDeviation="0.407952" result="effect_layerBlur_2"/>
		</filter>
		<filter id="filter_114_3398_dd" x="805.186340" y="261.466553" width="115.447388" height="105.502716" filterUnits="userSpaceOnUse" color-interpolation-filters="sRGB">
			<feFlood flood-opacity="0" result="BackgroundImageFix"/>
			<feGaussianBlur stdDeviation="0.815905" result="effect_layerBlur_1"/>
			<feGaussianBlur stdDeviation="0.815905" result="effect_layerBlur_2"/>
		</filter>
		<filter id="filter_114_3401_dd" x="826.472473" y="276.874084" width="41.447876" height="38.065247" filterUnits="userSpaceOnUse" color-interpolation-filters="sRGB">
			<feFlood flood-opacity="0" result="BackgroundImageFix"/>
			<feBlend mode="normal" in="SourceGraphic" in2="BackgroundImageFix" result="shape"/>
			<feGaussianBlur stdDeviation="0.244771" result="effect_layerBlur_1"/>
		</filter>
		<filter id="filter_114_3410_dd" x="819.395813" y="261.427124" width="16.641724" height="18.037628" filterUnits="userSpaceOnUse" color-interpolation-filters="sRGB">
			<feFlood flood-opacity="0" result="BackgroundImageFix"/>
			<feBlend mode="normal" in="SourceGraphic" in2="BackgroundImageFix" result="shape"/>
			<feGaussianBlur stdDeviation="0.407952" result="effect_layerBlur_1"/>
		</filter>
		<filter id="filter_114_3414_dd" x="1033.263184" y="260.262756" width="148.473633" height="117.473724" filterUnits="userSpaceOnUse" color-interpolation-filters="sRGB">
			<feFlood flood-opacity="0" result="BackgroundImageFix"/>
			<feGaussianBlur in="BackgroundImage" stdDeviation="8.33333"/>
			<feComposite in2="SourceAlpha" operator="in" result="effect_backgroundBlur_1"/>
			<feBlend mode="normal" in="SourceGraphic" in2="effect_backgroundBlur_1" result="shape"/>
		</filter>
		<linearGradient id="paint_linear_114_3444_0" x1="-124.500610" y1="0.000000" x2="1828.500000" y2="408.516113" gradientUnits="userSpaceOnUse">
			<stop offset="0.004109" stop-color="#F6FEFF"/>
			<stop offset="1.000000" stop-color="#FFF6FE"/>
		</linearGradient>
		<linearGradient id="paint_linear_114_3445_0" x1="-124.500610" y1="0.000000" x2="1828.500000" y2="408.516113" gradientUnits="userSpaceOnUse">
			<stop offset="0.004109" stop-color="#F6FEFF"/>
			<stop offset="1.000000" stop-color="#FFF6FE"/>
		</linearGradient>
		<linearGradient id="paint_linear_114_3416_0" x1="97.000000" y1="198.417969" x2="729.500000" y2="382.969360" gradientUnits="userSpaceOnUse">
			<stop offset="0.000226" stop-color="#F7FDFF"/>
			<stop offset="1.000000" stop-color="#F9E6FF"/>
		</linearGradient>
		<linearGradient id="paint_linear_114_3416_1" x1="241.671234" y1="290.481445" x2="946.186096" y2="369.592896" gradientUnits="userSpaceOnUse">
			<stop offset="0.000186" stop-color="#F6FCFF"/>
			<stop offset="1.000000" stop-color="#FFBCE9"/>
		</linearGradient>
		<linearGradient id="paint_linear_114_3417_0" x1="465.748840" y1="54.483337" x2="872.373108" y2="338.406860" gradientUnits="userSpaceOnUse">
			<stop offset="0.000226" stop-color="#F7FDFF"/>
			<stop offset="1.000000" stop-color="#F9E6FF"/>
		</linearGradient>
		<linearGradient id="paint_linear_114_3417_1" x1="524.314453" y1="64.273743" x2="973.564575" y2="370.141174" gradientUnits="userSpaceOnUse">
			<stop offset="0.000186" stop-color="#F6FCFF"/>
			<stop offset="1.000000" stop-color="#FFBCE9"/>
		</linearGradient>
		<linearGradient id="paint_linear_114_3418_0" x1="882.000366" y1="159.815475" x2="940.440918" y2="306.292847" gradientUnits="userSpaceOnUse">
			<stop offset="0.005033" stop-color="#FDF6FF" stop-opacity="0.674510"/>
			<stop offset="0.995192" stop-color="#F9DAFF"/>
		</linearGradient>
		<linearGradient id="paint_linear_114_3418_1" x1="859.500061" y1="191.543808" x2="999.747803" y2="387.432251" gradientUnits="userSpaceOnUse">
			<stop offset="0.000186" stop-color="#FFF6FE"/>
			<stop offset="1.000000" stop-color="#FF96AE"/>
		</linearGradient>
		<linearGradient id="paint_linear_114_3419_0" x1="1042.971436" y1="161.016937" x2="1007.411499" y2="313.462799" gradientUnits="userSpaceOnUse">
			<stop offset="0.005033" stop-color="#FDF6FF" stop-opacity="0.674510"/>
			<stop offset="0.995192" stop-color="#F9DAFF"/>
		</linearGradient>
		<linearGradient id="paint_linear_114_3419_1" x1="1005.440796" y1="177.085251" x2="1010.563843" y2="410.895813" gradientUnits="userSpaceOnUse">
			<stop offset="0.000186" stop-color="#FFF6FE"/>
			<stop offset="1.000000" stop-color="#FF96AE"/>
		</linearGradient>
		<linearGradient id="paint_linear_114_3420_0" x1="1708.000244" y1="153.998901" x2="1368.000000" y2="394.074219" gradientUnits="userSpaceOnUse">
			<stop offset="0.000226" stop-color="#FFF6FE"/>
			<stop offset="1.000000" stop-color="#F9E6FF"/>
		</linearGradient>
		<linearGradient id="paint_linear_114_3420_1" x1="1859.500000" y1="238.077881" x2="1202.500000" y2="393.016479" gradientUnits="userSpaceOnUse">
			<stop offset="0.000186" stop-color="#F6FCFF"/>
			<stop offset="1.000000" stop-color="#FFBCE9"/>
		</linearGradient>
		<linearGradient id="paint_linear_114_3421_0" x1="1454.691406" y1="54.482666" x2="1087.500244" y2="361.288818" gradientUnits="userSpaceOnUse">
			<stop offset="0.000226" stop-color="#FEF7FE"/>
			<stop offset="1.000000" stop-color="#F8EDFF"/>
		</linearGradient>
		<linearGradient id="paint_linear_114_3421_1" x1="1281.500000" y1="77.322693" x2="946.875793" y2="370.142517" gradientUnits="userSpaceOnUse">
			<stop offset="0.000186" stop-color="#F6FCFF"/>
			<stop offset="1.000000" stop-color="#FFBCE9"/>
		</linearGradient>
		<linearGradient id="paint_linear_114_3356_0" x1="1337.956787" y1="318.781097" x2="1471.664185" y2="343.587860" gradientUnits="userSpaceOnUse">
			<stop stop-color="#4D0FFF"/>
			<stop offset="0.999500" stop-color="#B462FF"/>
		</linearGradient>
		<linearGradient id="paint_linear_114_3357_0" x1="1410.716553" y1="338.792938" x2="1453.329712" y2="353.945007" gradientUnits="userSpaceOnUse">
			<stop offset="0.198180" stop-color="#9A35FF"/>
			<stop offset="0.971612" stop-color="#FF80D7"/>
		</linearGradient>
		<linearGradient id="paint_linear_114_3358_0" x1="1503.246826" y1="339.930206" x2="1475.264404" y2="237.061478" gradientUnits="userSpaceOnUse">
			<stop stop-color="#FFFFFF"/>
			<stop offset="0.961563" stop-color="#D45BFF"/>
		</linearGradient>
		<linearGradient id="paint_linear_114_3359_0" x1="1425.618408" y1="373.199860" x2="1327.229248" y2="279.147308" gradientUnits="userSpaceOnUse">
			<stop stop-color="#FFFFFF"/>
			<stop offset="1.000000" stop-color="#ED7CFF"/>
		</linearGradient>
		<linearGradient id="paint_linear_114_3361_0" x1="1397.625122" y1="263.608154" x2="1321.191040" y2="209.774963" gradientUnits="userSpaceOnUse">
			<stop stop-color="#F776FE"/>
			<stop offset="1.000000" stop-color="#FFEBE4" stop-opacity="0.501961"/>
		</linearGradient>
		<linearGradient id="paint_linear_114_3361_1" x1="1375.068848" y1="295.844513" x2="1269.890381" y2="193.015198" gradientUnits="userSpaceOnUse">
			<stop stop-color="#F2EEFF"/>
			<stop offset="1.000000" stop-color="#FFB7B7"/>
		</linearGradient>
		<linearGradient id="paint_linear_114_3362_0" x1="1270.518555" y1="309.048157" x2="1236.357300" y2="277.030029" gradientUnits="userSpaceOnUse">
			<stop stop-color="#F776FE"/>
			<stop offset="1.000000" stop-color="#FFEBE4" stop-opacity="0.501961"/>
		</linearGradient>
		<linearGradient id="paint_linear_114_3362_1" x1="1258.864502" y1="338.929779" x2="1212.796143" y2="271.372650" gradientUnits="userSpaceOnUse">
			<stop stop-color="#F2EEFF"/>
			<stop offset="1.000000" stop-color="#FFB7B7"/>
		</linearGradient>
		<linearGradient id="paint_linear_114_3363_0" x1="1662.646851" y1="227.188522" x2="1491.088989" y2="215.828064" gradientUnits="userSpaceOnUse">
			<stop stop-color="#FFFFFF"/>
			<stop offset="1.000000" stop-color="#FADFFF"/>
		</linearGradient>
		<linearGradient id="paint_linear_114_3363_1" x1="1640.901855" y1="276.064270" x2="1489.828857" y2="211.911850" gradientUnits="userSpaceOnUse">
			<stop stop-color="#F2C7FF"/>
			<stop offset="1.000000" stop-color="#FF96D5"/>
		</linearGradient>
		<linearGradient id="paint_linear_114_3364_0" x1="1130.179688" y1="238.353104" x2="1091.766113" y2="223.371994" gradientUnits="userSpaceOnUse">
			<stop offset="0.001461" stop-color="#FEE9FF"/>
			<stop offset="1.000000" stop-color="#FFFFFF"/>
		</linearGradient>
		<linearGradient id="paint_linear_114_3364_1" x1="1124.944336" y1="257.657104" x2="1068.439819" y2="222.867523" gradientUnits="userSpaceOnUse">
			<stop stop-color="#F2EEFF"/>
			<stop offset="1.000000" stop-color="#FFEAEA"/>
		</linearGradient>
		<linearGradient id="paint_linear_114_3365_0" x1="748.962891" y1="240.928192" x2="592.599731" y2="206.303467" gradientUnits="userSpaceOnUse">
			<stop stop-color="#F776FE"/>
			<stop offset="1.000000" stop-color="#FFEBE4" stop-opacity="0.501961"/>
		</linearGradient>
		<linearGradient id="paint_linear_114_3365_1" x1="727.652283" y1="285.543335" x2="497.649292" y2="205.137604" gradientUnits="userSpaceOnUse">
			<stop stop-color="#F2EEFF"/>
			<stop offset="1.000000" stop-color="#FFB7B7"/>
		</linearGradient>
		<linearGradient id="paint_linear_114_3366_0" x1="568.088928" y1="245.645874" x2="312.826355" y2="276.122772" gradientUnits="userSpaceOnUse">
			<stop stop-color="#FFFFFF"/>
			<stop offset="1.000000" stop-color="#FADFFF"/>
		</linearGradient>
		<linearGradient id="paint_linear_114_3366_1" x1="543.646057" y1="297.932129" x2="310.348724" y2="272.659546" gradientUnits="userSpaceOnUse">
			<stop stop-color="#F2C7FF"/>
			<stop offset="1.000000" stop-color="#FF96D5"/>
		</linearGradient>
		<linearGradient id="paint_linear_114_3367_0" x1="852.227295" y1="254.081573" x2="806.094910" y2="222.931427" gradientUnits="userSpaceOnUse">
			<stop stop-color="#F776FE"/>
			<stop offset="1.000000" stop-color="#FFEBE4" stop-opacity="0.501961"/>
		</linearGradient>
		<linearGradient id="paint_linear_114_3367_1" x1="839.484985" y1="277.179260" x2="775.482910" y2="215.022659" gradientUnits="userSpaceOnUse">
			<stop stop-color="#F2EEFF"/>
			<stop offset="1.000000" stop-color="#FFB7B7"/>
		</linearGradient>
		<linearGradient id="paint_linear_114_3369_0" x1="1121.853882" y1="459.012268" x2="1046.298462" y2="232.103256" gradientUnits="userSpaceOnUse">
			<stop offset="0.096119" stop-color="#B1CAFF"/>
			<stop offset="0.563580" stop-color="#D6C5FF"/>
			<stop offset="1.000000" stop-color="#C5E1FF"/>
		</linearGradient>
		<linearGradient id="paint_linear_114_3369_1" x1="1047.315674" y1="266.000153" x2="1130.500000" y2="405.000153" gradientUnits="userSpaceOnUse">
			<stop offset="0.000313" stop-color="#E2EDFF"/>
			<stop offset="1.000000" stop-color="#ADB5FF"/>
		</linearGradient>
		<linearGradient id="paint_linear_114_3371_0" x1="935.500000" y1="251.499756" x2="1129.999756" y2="400.928528" gradientUnits="userSpaceOnUse">
			<stop stop-color="#FFCDFB"/>
			<stop offset="0.999503" stop-color="#DC93F8"/>
		</linearGradient>
		<linearGradient id="paint_linear_114_3371_1" x1="874.000000" y1="257.999756" x2="1003.999817" y2="412.999756" gradientUnits="userSpaceOnUse">
			<stop offset="0.008542" stop-color="#FBC7FB"/>
			<stop offset="1.000000" stop-color="#F8C2FA"/>
		</linearGradient>
		<linearGradient id="paint_linear_114_3372_0" x1="902.745972" y1="284.105530" x2="727.018250" y2="250.671326" gradientUnits="userSpaceOnUse">
			<stop offset="0.007959" stop-color="#EBBDF9"/>
			<stop offset="1.000000" stop-color="#FFDDF8" stop-opacity="0.501961"/>
		</linearGradient>
		<linearGradient id="paint_linear_114_3372_1" x1="762.041321" y1="440.538330" x2="766.877136" y2="311.307678" gradientUnits="userSpaceOnUse">
			<stop offset="0.004854" stop-color="#EAE4FF"/>
			<stop offset="1.000000" stop-color="#E9D8FF"/>
		</linearGradient>
		<linearGradient id="paint_linear_114_3373_0" x1="871.353821" y1="459.011902" x2="795.798462" y2="232.102890" gradientUnits="userSpaceOnUse">
			<stop offset="0.096119" stop-color="#A8ADFF"/>
			<stop offset="0.569201" stop-color="#E8C3FF"/>
			<stop offset="1.000000" stop-color="#C5E1FF"/>
		</linearGradient>
		<linearGradient id="paint_linear_114_3373_1" x1="863.500000" y1="271.499817" x2="788.000000" y2="327.999756" gradientUnits="userSpaceOnUse">
			<stop stop-color="#FBC6FB"/>
			<stop offset="1.000000" stop-color="#E7DAFF"/>
		</linearGradient>
		<linearGradient id="paint_linear_114_3377_0" x1="944.371094" y1="300.767731" x2="1039.936035" y2="343.962341" gradientUnits="userSpaceOnUse">
			<stop offset="0.111064" stop-color="#FFE3A9"/>
			<stop offset="0.609093" stop-color="#FFA1D6"/>
			<stop offset="0.916829" stop-color="#E531FF"/>
		</linearGradient>
		<linearGradient id="paint_linear_114_3380_0" x1="941.499817" y1="264.499786" x2="1026.499756" y2="298.499756" gradientUnits="userSpaceOnUse">
			<stop stop-color="#CDF3FF"/>
			<stop offset="1.000000" stop-color="#BDD2FF"/>
		</linearGradient>
		<linearGradient id="paint_linear_114_3386_0" x1="934.376160" y1="301.373535" x2="924.979980" y2="313.928375" gradientUnits="userSpaceOnUse">
			<stop stop-color="#FFFFFF" stop-opacity="0.627451"/>
			<stop offset="1.000000" stop-color="#FFFFFF" stop-opacity="0.000000"/>
		</linearGradient>
		<linearGradient id="paint_linear_114_3387_0" x1="880.593262" y1="278.438538" x2="944.921204" y2="301.499664" gradientUnits="userSpaceOnUse">
			<stop offset="0.111085" stop-color="#FFE0B9"/>
			<stop offset="1.000000" stop-color="#FF61CD"/>
		</linearGradient>
		<linearGradient id="paint_linear_114_3388_0" x1="903.654297" y1="286.328491" x2="971.016785" y2="330.023010" gradientUnits="userSpaceOnUse">
			<stop stop-color="#FFFFFF" stop-opacity="0.490196"/>
			<stop offset="1.000000" stop-color="#FFFFFF" stop-opacity="0.101961"/>
		</linearGradient>
		<linearGradient id="paint_linear_114_3388_1" x1="969.475891" y1="290.409729" x2="898.236023" y2="320.441956" gradientUnits="userSpaceOnUse">
			<stop stop-color="#FFFFFF"/>
			<stop offset="1.000000" stop-color="#FFFFFF" stop-opacity="0.000000"/>
		</linearGradient>
		<linearGradient id="paint_linear_114_3391_0" x1="786.886902" y1="239.916626" x2="807.250183" y2="289.197357" gradientUnits="userSpaceOnUse">
			<stop stop-color="#B3F1FF"/>
			<stop offset="0.949844" stop-color="#3E7FFF"/>
			<stop offset="1.000000" stop-color="#2BB2FF"/>
		</linearGradient>
		<linearGradient id="paint_linear_114_3394_0" x1="888.171082" y1="362.276825" x2="913.819214" y2="359.543091" gradientUnits="userSpaceOnUse">
			<stop stop-color="#809CFF"/>
			<stop offset="1.000000" stop-color="#2BCCFF"/>
		</linearGradient>
		<linearGradient id="paint_linear_114_3397_0" x1="816.089111" y1="269.566040" x2="845.220703" y2="388.171692" gradientUnits="userSpaceOnUse">
			<stop stop-color="#4EAAFF"/>
			<stop offset="0.927727" stop-color="#28BFFF"/>
		</linearGradient>
		<linearGradient id="paint_linear_114_3399_0" x1="829.005920" y1="264.861084" x2="879.738831" y2="323.934723" gradientUnits="userSpaceOnUse">
			<stop stop-color="#0469FF"/>
			<stop offset="1.000000" stop-color="#4213FF"/>
		</linearGradient>
		<radialGradient id="paint_radial_114_3400_0" cx="0.000000" cy="0.000000" r="1.000000" gradientUnits="userSpaceOnUse" gradientTransform="translate(855.206 305.367) rotate(-129.191) scale(30.567 5.58092)">
			<stop stop-color="#5BF3FD"/>
			<stop offset="1.000000" stop-color="#3B50E6"/>
		</radialGradient>
		<linearGradient id="paint_linear_114_3404_0" x1="845.906799" y1="294.285675" x2="835.239990" y2="280.911255" gradientUnits="userSpaceOnUse">
			<stop stop-color="#95DDFF" stop-opacity="0.549020"/>
			<stop offset="1.000000" stop-color="#FFFFFF"/>
		</linearGradient>
		<linearGradient id="paint_linear_114_3407_0" x1="856.133911" y1="307.111176" x2="846.815857" y2="295.428406" gradientUnits="userSpaceOnUse">
			<stop stop-color="#95DDFF" stop-opacity="0.549020"/>
			<stop offset="1.000000" stop-color="#FFFFFF"/>
		</linearGradient>
		<linearGradient id="paint_linear_114_3409_0" x1="819.083374" y1="280.662659" x2="823.450745" y2="283.567963" gradientUnits="userSpaceOnUse">
			<stop stop-color="#4EAAFF"/>
			<stop offset="1.000000" stop-color="#9CE7FF"/>
		</linearGradient>
		<linearGradient id="paint_linear_114_3413_0" x1="786.000000" y1="331.770691" x2="998.170654" y2="429.499817" gradientUnits="userSpaceOnUse">
			<stop stop-color="#FAA1FF"/>
			<stop offset="1.000000" stop-color="#B279FF"/>
		</linearGradient>
		<linearGradient id="paint_linear_114_3413_1" x1="794.063354" y1="309.499756" x2="1045.039673" y2="337.499481" gradientUnits="userSpaceOnUse">
			<stop stop-color="#E7DAFF"/>
			<stop offset="0.997178" stop-color="#D5E0FF"/>
		</linearGradient>
		<linearGradient id="paint_linear_114_3414_0" x1="1039.000000" y1="298.178223" x2="1175.999878" y2="354.963928" gradientUnits="userSpaceOnUse">
			<stop offset="0.003368" stop-color="#F9F8FF"/>
			<stop offset="1.000000" stop-color="#E7E3FF"/>
		</linearGradient>
	</defs>
</svg>
