<svg width="20" height="20" viewBox="0 0 20 20" fill="none" xmlns="http://www.w3.org/2000/svg">
<path fill-rule="evenodd" clip-rule="evenodd" d="M17.2 10C17.2 13.9764 13.9764 17.2 10 17.2C6.02355 17.2 2.8 13.9764 2.8 10C2.8 6.02355 6.02355 2.8 10 2.8C13.9764 2.8 17.2 6.02355 17.2 10ZM19 10C19 14.9706 14.9706 19 10 19C5.02944 19 1 14.9706 1 10C1 5.02944 5.02944 1 10 1C14.9706 1 19 5.02944 19 10ZM13.4499 10.7795C13.7284 10.6187 13.8999 10.3216 13.8999 10C13.8999 9.67849 13.7284 9.38138 13.4499 9.22061L8.9499 6.62253C8.67144 6.46176 8.32836 6.46176 8.0499 6.62253C7.77144 6.7833 7.5999 7.08041 7.5999 7.40195L7.5999 12.5981C7.5999 12.9196 7.77144 13.2168 8.0499 13.3775C8.32836 13.5383 8.67144 13.5383 8.9499 13.3775L13.4499 10.7795ZM9.3999 8.9608L11.1999 10L9.3999 11.0393V8.9608Z" fill="black"/>
</svg>
