<svg width="46.500000" height="44.998779" viewBox="0 0 46.5 44.9988" fill="none" xmlns="http://www.w3.org/2000/svg" xmlns:xlink="http://www.w3.org/1999/xlink">
	<desc>
			Created with Pixso.
	</desc>
	<g filter="url(#filter_11_157_dd)">
		<mask id="mask11_150" mask-type="alpha" maskUnits="userSpaceOnUse" x="0.250000" y="0.250000" width="46.000000" height="44.498779">
			<rect x="0.250000" y="0.250000" rx="7.300971" width="46.000000" height="44.498779" fill="#FFFFFF"/>
		</mask>
		<g mask="url(#mask11_150)">
			<rect x="0.250000" y="0.250000" width="46.000000" height="44.498779" fill="#35127C"/>
			<path d="M26.9152 13.4231C24.1607 13.4231 21.9277 15.5833 21.9277 18.248L21.9277 35.4495C21.9277 37.3214 20.3589 38.839 18.4238 38.839C16.4886 38.839 14.9199 37.3214 14.9199 35.4495L14.9199 18.248C14.9199 11.8394 20.2903 6.64404 26.9152 6.64404C33.5401 6.64404 38.9106 11.8394 38.9106 18.248C38.9106 24.6566 33.5401 29.8519 26.9152 29.8519C24.9801 29.8519 23.4113 28.3344 23.4113 26.4624C23.4113 24.5903 24.9801 23.0728 26.9152 23.0728C29.6698 23.0728 31.9028 20.9126 31.9028 18.248C31.9028 15.5833 29.6698 13.4231 26.9152 13.4231Z" fill="url(#paint_linear_11_152_0)"/>
			<path d="M30.7792 21.3616C29.0363 23.425 25.8942 23.7308 23.7612 22.0449L13.36 13.8231C11.8615 12.6387 9.65414 12.8535 8.42969 14.3032C7.20523 15.7527 7.42737 17.8882 8.92587 19.0726L19.3269 27.2942C24.4569 31.3494 32.0139 30.6136 36.2058 25.6511C40.3977 20.6884 39.6371 13.3782 34.5071 9.323C33.0086 8.13855 30.8012 8.35339 29.5768 9.80298C28.3523 11.2527 28.5744 13.3881 30.073 14.5725C32.2059 16.2587 32.5222 19.2982 30.7792 21.3616Z" fill="url(#paint_linear_11_153_0)"/>
			<path d="M13.0078 16.5024C13.0078 17.5105 12.1631 18.3276 11.1211 18.3276C10.0791 18.3276 9.23438 17.5105 9.23438 16.5024C9.23438 15.4944 10.0791 14.6772 11.1211 14.6772C12.1631 14.6772 13.0078 15.4944 13.0078 16.5024Z" fill="#FFFFFF"/>
		</g>
	</g>
	<defs>
		<filter id="filter_11_157_dd" x="0.000000" y="0.000000" width="46.500000" height="44.998779" filterUnits="userSpaceOnUse" color-interpolation-filters="sRGB">
			<feFlood flood-opacity="0" result="BackgroundImageFix"/>
			<feBlend mode="normal" in="SourceGraphic" in2="BackgroundImageFix" result="shape"/>
			<feGaussianBlur stdDeviation="0.0833333" result="effect_layerBlur_1"/>
		</filter>
		<linearGradient id="paint_linear_11_152_0" x1="19.650074" y1="38.732460" x2="24.322109" y2="11.870495" gradientUnits="userSpaceOnUse">
			<stop stop-color="#A9FFD6"/>
			<stop offset="0.586163" stop-color="#9831FF"/>
			<stop offset="1.000000" stop-color="#F55EC7"/>
		</linearGradient>
		<linearGradient id="paint_linear_11_153_0" x1="8.630616" y1="15.579605" x2="28.553247" y2="15.707541" gradientUnits="userSpaceOnUse">
			<stop stop-color="#FFCEB9"/>
			<stop offset="0.617431" stop-color="#F65EC6"/>
		</linearGradient>
	</defs>
</svg>
