<svg width="3.000000" height="14.000000" viewBox="0 0 3 14" fill="none" xmlns="http://www.w3.org/2000/svg" xmlns:xlink="http://www.w3.org/1999/xlink">
	<desc>
			Created with Pixso.
	</desc>
	<path d="M1.5 3C2.32812 3 3 2.32768 3 1.5C3 0.672318 2.32812 0 1.5 0C0.671875 0 0 0.672318 0 1.5C0 2.32768 0.671875 3 1.5 3ZM3 7C3 7.82768 2.32812 8.5 1.5 8.5C0.671875 8.5 0 7.82768 0 7C0 6.17232 0.671875 5.5 1.5 5.5C2.32812 5.5 3 6.17232 3 7ZM3 12.5C3 13.3277 2.32812 14 1.5 14C0.671875 14 0 13.3277 0 12.5C0 11.6723 0.671875 11 1.5 11C2.32812 11 3 11.6723 3 12.5Z" fill-rule="evenodd" clip-rule="evenodd" fill="#5F7292" fill-opacity="1.000000"/>
	<defs/>
</svg>
