<svg width="20.000000" height="20.000000" viewBox="0 0 20 20" fill="none" xmlns="http://www.w3.org/2000/svg" xmlns:xlink="http://www.w3.org/1999/xlink">
	<desc>
			Created with Pixso.
	</desc>
	<path d="M0 10.0035C-0.000488281 11.3298 0.25293 12.6058 0.760254 13.8314C1.26758 15.0569 1.98975 16.1387 2.92773 17.0768C3.86523 18.0148 4.94678 18.7377 6.17236 19.2454C7.39795 19.7531 8.67383 20.0069 10 20.0069C11.3262 20.0069 12.6021 19.7531 13.8276 19.2454C15.0532 18.7377 16.1348 18.0148 17.0723 17.0768C18.0103 16.1387 18.7324 15.0569 19.2397 13.8314C19.7471 12.6058 20.0005 11.3298 20 10.0035C20.0005 8.67708 19.7471 7.40111 19.2397 6.17557C18.7324 4.95001 18.0103 3.86821 17.0723 2.93016C16.1348 1.9921 15.0532 1.26923 13.8276 0.761536C12.6021 0.253845 11.3262 0 10 0C8.67383 0 7.39795 0.253845 6.17236 0.761536C4.94678 1.26923 3.86523 1.9921 2.92773 2.93016C1.98975 3.86821 1.26758 4.95001 0.760254 6.17557C0.25293 7.40111 -0.000488281 8.67708 0 10.0035Z" fill="url(#paint_linear_16_513_0)"/>
	<path d="M5.04639 7.72282C5.04639 8.62508 5.49756 9.0762 6.3999 9.0762C7.30225 9.0762 7.75293 8.62508 7.75293 7.72282C7.75293 6.82057 7.30225 6.36945 6.3999 6.36945C5.49756 6.36945 5.04639 6.82057 5.04639 7.72282Z" fill="#231815"/>
	<path d="M12.2471 7.72282C12.2471 8.62508 12.6982 9.0762 13.6006 9.0762C14.5029 9.0762 14.9536 8.62508 14.9536 7.72282C14.9546 6.81969 14.5034 6.36812 13.6006 6.36812C12.6973 6.36812 12.2461 6.81969 12.2471 7.72282L12.2471 7.72282Z" fill="#231815"/>
	<path d="M11.9556 12.6065L8.04492 12.6065C7.64795 12.6065 7.32324 12.2818 7.32324 11.8849C7.32324 11.4879 7.64795 11.1632 8.04492 11.1632L11.9556 11.1632C12.3525 11.1632 12.6772 11.4879 12.6772 11.8849C12.6772 12.2818 12.3525 12.6065 11.9556 12.6065Z" fill="#FFFFFF"/>
	<defs>
		<linearGradient id="paint_linear_16_513_0" x1="10.000009" y1="0.000000" x2="10.000009" y2="20.006924" gradientUnits="userSpaceOnUse">
			<stop stop-color="#FFAA15"/>
			<stop offset="1.000000" stop-color="#FFC515"/>
		</linearGradient>
	</defs>
</svg>
