<svg width="20.000000" height="20.000000" viewBox="0 0 20 20" fill="none" xmlns="http://www.w3.org/2000/svg" xmlns:xlink="http://www.w3.org/1999/xlink">
	<desc>
			Created with Pixso.
	</desc>
	<path d="M0.760223 13.8315Q-0.000671387 11.9932 0 10.0034C-0.000457764 8.67725 0.25296 7.40088 0.760223 6.17578Q1.52112 4.3374 2.9277 2.93018Q4.33432 1.52295 6.17236 0.761719Q8.01044 0 10 0C11.3264 0 12.6023 0.253906 13.8276 0.761719Q15.6657 1.52295 17.0723 2.93018Q18.4789 4.3374 19.2398 6.17578C19.7471 7.40088 20.0005 8.67725 20 10.0034C20.0005 11.3301 19.7471 12.606 19.2398 13.8315Q18.4789 15.6699 17.0723 17.0767C16.1346 18.0146 15.053 18.7378 13.8276 19.2456C12.6023 19.7529 11.3264 20.0068 10 20.0068C8.67365 20.0068 7.39774 19.7529 6.17236 19.2456C4.94699 18.7378 3.86545 18.0146 2.9277 17.0767Q1.52112 15.6699 0.760223 13.8315ZM1.68466 13.4487Q2.36942 15.103 3.63528 16.3696Q4.90118 17.6357 6.55533 18.3213Q8.2095 19.0063 10 19.0063Q11.7905 19.0063 13.4447 18.3213Q15.0989 17.6357 16.3647 16.3696Q17.6306 15.103 18.3154 13.4487Q19.0001 11.7944 18.9995 10.0039Q19.0001 8.2124 18.3154 6.55811Q17.6306 4.90381 16.3647 3.6377Q15.0989 2.37109 13.4447 1.68604Q11.7905 1.00049 10 1.00049Q8.2095 1.00049 6.55533 1.68604Q4.90115 2.37109 3.63528 3.6377Q2.36942 4.90381 1.68466 6.55811Q0.999878 8.2124 1.00049 10.0029Q0.999878 11.7944 1.68466 13.4487Z" fill-rule="evenodd" fill="#5F7292"/>
	<path d="M5.04651 7.72266C5.04651 8.625 5.49762 9.07568 6.3999 9.07568C7.30212 9.07568 7.75327 8.625 7.75327 7.72266C7.75327 6.82031 7.30212 6.36914 6.3999 6.36914C5.49762 6.36914 5.04651 6.82031 5.04651 7.72266Z" fill-rule="evenodd" fill="#5F7292"/>
	<path d="M12.2469 7.72266C12.2469 8.625 12.6981 9.07617 13.6003 9.07617C14.5026 9.07617 14.9537 8.625 14.9537 7.72266C14.9546 6.81982 14.5035 6.36816 13.6003 6.36816C12.6972 6.36816 12.2461 6.81982 12.2469 7.72266L12.2469 7.72266Z" fill-rule="evenodd" fill="#5F7292"/>
	<path d="M11.9553 12.6064L8.04477 12.6064C7.64786 12.6064 7.32312 12.2817 7.32312 11.8848C7.32312 11.4878 7.64786 11.1631 8.04477 11.1631L11.9553 11.1631C12.3522 11.1631 12.6769 11.4878 12.6769 11.8848C12.6769 12.2817 12.3522 12.6064 11.9553 12.6064Z" fill-rule="evenodd" fill="#5F7292"/>
	<defs/>
</svg>
