<svg width="20.000000" height="20.000000" viewBox="0 0 20 20" fill="none" xmlns="http://www.w3.org/2000/svg" xmlns:xlink="http://www.w3.org/1999/xlink">
	<desc>
			Created with Pixso.
	</desc>
	<g opacity="0.000000"/>
	<path d="M11.4158 10.0042L15.7158 5.71411C16.1892 5.24072 16.1892 4.76733 15.7158 4.29419C15.2424 3.8208 14.769 3.8208 14.2959 4.29419L10.0059 8.59399L5.71582 4.29419C5.24243 3.8208 4.76904 3.8208 4.2959 4.29419C3.82251 4.76733 3.82251 5.24072 4.2959 5.71411L8.5957 10.0042L4.2959 14.2942C3.8186 14.7673 3.8186 15.2407 4.2959 15.7141C4.76904 16.1914 5.24243 16.1914 5.71582 15.7141L10.0059 11.4141L14.2959 15.7141C14.769 16.1914 15.2424 16.1914 15.7158 15.7141C16.1931 15.2407 16.1931 14.7673 15.7158 14.2942L11.4158 10.0042Z" fill="#000000"/>
	<defs/>
</svg>
