<svg width="12.011719" height="12.009888" viewBox="0 0 12.0117 12.0099" fill="none" xmlns="http://www.w3.org/2000/svg" xmlns:xlink="http://www.w3.org/1999/xlink">
	<desc>
			Created with Pixso.
	</desc>
	<path d="M7.41602 6.00415L11.7158 1.71411C12.1895 1.24072 12.1895 0.767456 11.7158 0.294067C11.2422 -0.179199 10.7695 -0.179199 10.2959 0.294067L6.00586 4.59412L1.71582 0.294067C1.24219 -0.179199 0.769531 -0.179199 0.295898 0.294067C-0.177734 0.767456 -0.177734 1.24072 0.295898 1.71411L4.5957 6.00415L0.295898 10.2941C-0.181641 10.7675 -0.181641 11.2407 0.295898 11.7141C0.769531 12.1913 1.24219 12.1913 1.71582 11.7141L6.00586 7.41406L10.2959 11.7141C10.7695 12.1913 11.2422 12.1913 11.7158 11.7141C12.1934 11.2407 12.1934 10.7675 11.7158 10.2941L7.41602 6.00415Z" fill="#000000"/>
	<defs/>
</svg>
