<svg width="20.000000" height="20.000000" viewBox="0 0 20 20" fill="none" xmlns="http://www.w3.org/2000/svg" xmlns:xlink="http://www.w3.org/1999/xlink">
	<desc>
			Created with Pixso.
	</desc>
	<g clip-path="url(#clip444_1303)">
		<g opacity="0.000000">
			<rect x="0.367188" y="-0.085815" width="19.628719" height="19.628717" fill="#565CFF"/>
		</g>
		<path d="M9.96094 4.00354C14.8516 3.85632 17.7305 8.41174 18.2539 9.31958C18.4111 9.59216 18.4111 9.86487 18.2539 10.1375C17.5508 11.3643 14.9248 15.3391 10.4023 15.4536L10.1982 15.4536C5.38086 15.4536 2.625 11.0289 2.10938 10.1375C1.95215 9.86487 1.95215 9.59216 2.10938 9.31958C2.82129 8.09277 5.4375 4.11804 9.96094 4.00354ZM3.81836 9.72852C4.53809 10.8817 6.83691 13.8997 10.3613 13.8179C13.6328 13.7361 15.7432 11.0453 16.585 9.72852C15.8574 8.57532 13.5508 5.54919 10.043 5.63916C6.77148 5.72095 4.63672 8.41174 3.81836 9.72852ZM7.31934 9.72852Q7.31934 6.86597 10.1816 6.86597Q11.6133 6.86597 12.3281 7.58167Q13.0439 8.29724 13.0439 9.72852C13.0439 11.6368 12.0898 12.5911 10.1816 12.5911Q7.31934 12.5911 7.31934 9.72852ZM8.95508 9.72852Q8.95508 10.9553 10.1816 10.9553Q11.4082 10.9553 11.4082 9.72852C11.4082 8.91064 10.999 8.50171 10.1816 8.50171Q8.95508 8.50171 8.95508 9.72852Z" fill-rule="evenodd" clip-rule="evenodd" fill="#565CFF" fill-opacity="1.000000"/>
	</g>
	<defs>
		<clipPath id="clip444_1303">
			<rect width="20.000000" height="20.000000" fill="white"/>
		</clipPath>
	</defs>
</svg>
