<svg width="20.000000" height="20.000000" viewBox="0 0 20 20" fill="none" xmlns="http://www.w3.org/2000/svg" xmlns:xlink="http://www.w3.org/1999/xlink">
	<desc>
			Created with Pixso.
	</desc>
	<g opacity="0.000000">
		<rect x="0.500000" y="0.500000" width="20.000000" height="20.000000" fill="#565CFF"/>
	</g>
	<path d="M17.2666 7.7583L13.2412 3.73328C12.7539 3.245 12.165 3.00061 11.4746 3L5.5 3C3.83301 3 3 3.83337 3 5.5L3 15.5C3 17.1666 3.83301 18 5.5 18L15.5 18C17.167 18 18 17.1666 18 15.5L18 9.52502C17.999 8.83484 17.7549 8.24597 17.2666 7.7583ZM8.83301 16.3334L8.83301 14.6666L12.167 14.6666L12.167 16.3334L8.83301 16.3334ZM16.333 15.5C16.333 16.0555 16.0557 16.3334 15.5 16.3334L13.833 16.3334L13.833 13.8334C13.833 13.2778 13.5557 13 13 13L8 13C7.44434 13 7.16699 13.2778 7.16699 13.8334L7.16699 16.3334L5.5 16.3334C4.94434 16.3334 4.66699 16.0555 4.66699 15.5L4.66699 5.5C4.66699 4.94446 4.94434 4.66663 5.5 4.66663L7.16699 4.66663L7.16699 8.83337C7.16699 9.38892 7.44434 9.66663 8 9.66663L11.333 9.66663C11.8887 9.66663 12.167 9.38892 12.167 8.83337C12.167 8.27783 11.8887 8 11.333 8L8.83301 8L8.83301 4.66663L11.4746 4.66663C11.7041 4.6698 11.9014 4.75037 12.0664 4.90833L16.0918 8.93335C16.2539 9.09717 16.335 9.29431 16.333 9.52502L16.333 15.5Z" fill="#565CFF"/>
	<defs/>
</svg>
