<svg width="20" height="20" viewBox="0 0 20 20" fill="none" xmlns="http://www.w3.org/2000/svg">
<path fill-rule="evenodd" clip-rule="evenodd" d="M3.00012 9.54198C3.00145 9.75201 3.01274 9.95967 3.03355 10.1645C3.36639 13.4422 6.13448 16 9.49999 16C10.6718 16 11.7711 15.6899 12.7205 15.1474C12.7933 15.1058 12.8652 15.0628 12.9362 15.0185C13.1012 14.9156 13.2613 14.8054 13.416 14.6885L16.6064 17.879C16.958 18.2305 17.5273 18.2305 17.8789 17.879C18.2305 17.5275 18.2305 16.9577 17.8789 16.6062L14.6886 13.4158C15.4603 12.3948 15.9377 11.1388 15.9943 9.77426C15.9981 9.68329 16 9.59189 16 9.5C16 9.18718 15.9779 8.87947 15.9352 8.57845C15.4876 5.42497 12.777 2.99994 9.49999 2.99994C6.13451 2.99994 3.36641 5.5577 3.03355 8.83535M14.2 9.5C14.2 12.0957 12.0957 14.2 9.49999 14.2C6.90425 14.2 4.79999 12.0957 4.79999 9.5C4.79999 6.90426 6.90425 4.8 9.49999 4.8C12.0957 4.8 14.2 6.90426 14.2 9.5Z" fill="#3C485C"/>
</svg>
