<svg width="20.000000" height="20.000000" viewBox="0 0 20 20" fill="none" xmlns="http://www.w3.org/2000/svg" xmlns:xlink="http://www.w3.org/1999/xlink">
	<desc>
			Created with Pixso.
	</desc>
	<g opacity="0.000000">
		<rect x="0.138672" y="-0.541931" width="20.412169" height="20.412169" fill="#FFFFFF"/>
	</g>
	<path d="M18 2.86011C17.9912 2.78174 17.9736 2.7052 17.9482 2.63046L17.9482 2.55392C17.9072 2.45847 17.8506 2.37341 17.7783 2.29877C17.7061 2.23044 17.624 2.17657 17.5322 2.13718L17.4551 2.13718C17.376 2.07669 17.2881 2.03415 17.1914 2.00958L17.1494 2.00958C17.0645 1.99667 16.9795 1.99667 16.8945 2.00958L1.58496 7.11264C1.19531 7.24081 1 7.51013 1 7.92062C1 8.33109 1.19531 8.60043 1.58496 8.72861L8.83984 11.144L11.2549 18.3989C11.3838 18.7888 11.6523 18.9838 12.0635 18.9838C12.4736 18.9838 12.7432 18.7888 12.8711 18.3989L17.9746 3.08972C17.9932 3.01434 18.002 2.93781 18 2.86011ZM14.002 4.80777L9.26465 9.54507L4.52734 7.96313L14.002 4.80777ZM12.0459 15.4816L10.4639 10.7443L15.2012 6.00699L12.0459 15.4816Z" fill="#FFFFFF"/>
	<defs/>
</svg>
