<svg width="29" height="28" viewBox="0 0 29 28" fill="none" xmlns="http://www.w3.org/2000/svg">
<g opacity="0.5">
<g clip-path="url(#clip0_1153_3071)">
<path d="M21.8742 14.0448C22.2594 14.3376 22.5304 14.6895 22.6873 15.1008C22.8442 15.512 22.9084 15.9407 22.8798 16.3867C22.8513 16.8328 22.7515 17.2789 22.5803 17.725C22.4091 18.1711 22.188 18.5753 21.917 18.9378C21.4321 19.5929 20.8829 20.1505 20.2696 20.6106C19.6562 21.0706 19.0215 21.4539 18.3653 21.7606C17.7092 22.0673 17.0495 22.3077 16.3862 22.482C15.723 22.6562 15.0989 22.7852 14.5141 22.8688C13.9293 22.9525 13.4051 23.0047 12.9415 23.0257C12.478 23.0466 12.1178 23.057 11.8611 23.057C11.6043 23.057 11.262 23.0396 10.8341 23.0047C10.4061 22.9699 9.93188 22.9002 9.41125 22.7956C8.89062 22.6911 8.34503 22.5447 7.77448 22.3565C7.20393 22.1683 6.64764 21.9209 6.10561 21.6142C5.56359 21.3076 5.04653 20.9312 4.55443 20.4851C4.06233 20.039 3.64511 19.5023 3.30278 18.875C3.07456 18.4708 2.92122 18.0386 2.84277 17.5786C2.76432 17.1186 2.7251 16.5331 2.7251 15.8222C2.7251 15.5155 2.77859 15.167 2.88557 14.7767C2.99254 14.3864 3.18154 13.9542 3.45255 13.4803C3.72356 13.0063 4.09442 12.4905 4.56513 11.9329C5.03583 11.3753 5.63491 10.762 6.36236 10.0928C7.07555 9.43766 7.8137 8.85567 8.57682 8.34686C9.33993 7.83805 10.1565 7.44425 11.0266 7.16545C11.426 7.02605 11.8682 6.94938 12.3532 6.93544C12.8381 6.9215 13.2375 6.99817 13.5513 7.16545C13.6939 7.31879 13.8295 7.47561 13.9578 7.63592C14.0862 7.79623 14.1718 7.99488 14.2146 8.23186C14.2574 8.42701 14.2609 8.6152 14.2253 8.79642C14.1896 8.97764 14.1504 9.15886 14.1076 9.34008C14.0648 9.5213 14.0291 9.69555 14.0006 9.86283C13.9721 10.0301 13.9864 10.1835 14.0434 10.3229C14.2859 10.3507 14.5212 10.3403 14.7495 10.2915C14.9777 10.2427 15.1988 10.18 15.4127 10.1033C15.6267 10.0266 15.8442 9.94647 16.0653 9.86283C16.2864 9.77919 16.5182 9.71646 16.7607 9.67464C17.1458 9.60494 17.5273 9.57358 17.9053 9.58055C18.2833 9.58752 18.6257 9.63979 18.9323 9.73737C19.239 9.83495 19.4922 9.98481 19.6919 10.1869C19.8916 10.3891 20.0128 10.6504 20.0556 10.9711C20.0841 11.1662 20.0699 11.3474 20.0128 11.5147C19.9557 11.682 19.8951 11.8388 19.8309 11.9852C19.7668 12.1316 19.7168 12.2814 19.6812 12.4348C19.6455 12.5881 19.6562 12.7484 19.7133 12.9157C19.7561 13.0133 19.8595 13.1039 20.0235 13.1875C20.1875 13.2712 20.3765 13.3548 20.5905 13.4384C20.8044 13.5221 21.0291 13.6127 21.2645 13.7103C21.4998 13.8078 21.7031 13.9194 21.8742 14.0448ZM16.4825 20.5478C16.8534 20.3248 17.2278 20.0181 17.6058 19.6278C17.9838 19.2375 18.2905 18.8018 18.5258 18.3209C18.7612 17.84 18.8931 17.3242 18.9216 16.7736C18.9502 16.2229 18.8075 15.6688 18.4937 15.1112C18.2227 14.6512 17.8911 14.2609 17.4988 13.9403C17.1066 13.6197 16.6679 13.3653 16.183 13.1771C15.698 12.9889 15.1809 12.853 14.6318 12.7693C14.0826 12.6857 13.5228 12.6439 12.9522 12.6439C11.8539 12.6439 10.8804 12.7554 10.0317 12.9784C9.18303 13.2015 8.44844 13.4942 7.82797 13.8566C7.20749 14.2191 6.70469 14.6303 6.31957 15.0903C5.93445 15.5503 5.66344 16.0173 5.50654 16.4913C5.34963 16.9513 5.30328 17.4078 5.36746 17.8609C5.43165 18.3139 5.57785 18.7426 5.80608 19.1469C6.0343 19.5511 6.33027 19.9136 6.694 20.2342C7.05772 20.5548 7.46067 20.8127 7.90285 21.0078C8.71589 21.3563 9.54675 21.5759 10.3954 21.6665C11.2441 21.7571 12.0536 21.7606 12.8239 21.677C13.5941 21.5933 14.2966 21.447 14.9313 21.2379C15.5661 21.0288 16.0831 20.7987 16.4825 20.5478ZM13.6797 13.9403C13.965 14.0518 14.236 14.1773 14.4927 14.3167C14.7495 14.4561 14.9777 14.6442 15.1774 14.8812C15.32 15.0485 15.4448 15.2576 15.5518 15.5085C15.6588 15.7594 15.7337 16.0278 15.7765 16.3136C15.8193 16.5993 15.8299 16.8886 15.8086 17.1813C15.7872 17.4741 15.7194 17.7389 15.6053 17.9759C15.4912 18.2268 15.3521 18.4812 15.1881 18.7391C15.024 18.997 14.8244 19.2375 14.589 19.4605C14.3536 19.6835 14.0719 19.8822 13.7439 20.0564C13.4158 20.2307 13.0164 20.3596 12.5457 20.4433C11.6899 20.5966 10.8697 20.5199 10.0852 20.2133C9.3007 19.9066 8.68736 19.3978 8.24518 18.6868C8.07402 18.1432 7.9813 17.6622 7.96704 17.244C7.95278 16.8258 8.06689 16.3728 8.30937 15.8849C8.4948 15.5085 8.77651 15.1565 9.1545 14.8289C9.53249 14.5014 9.96753 14.2365 10.4596 14.0344C10.9517 13.8322 11.4759 13.7137 12.0322 13.6789C12.5885 13.644 13.1377 13.7312 13.6797 13.9403ZM10.2778 19.0841C10.8055 19.1259 11.2085 19.0005 11.4866 18.7077C11.7648 18.415 11.9145 18.0874 11.9359 17.725C11.9573 17.3625 11.8504 17.0384 11.615 16.7527C11.3796 16.4669 11.0124 16.3519 10.5131 16.4077C10.128 16.4495 9.82846 16.6098 9.61451 16.8886C9.40055 17.1674 9.27931 17.4636 9.25078 17.7773C9.22225 18.0909 9.29 18.3802 9.45404 18.645C9.61807 18.9099 9.89265 19.0562 10.2778 19.0841ZM19.0286 3.58984C20.0699 3.58984 21.0434 3.72576 21.9491 3.99759C22.8549 4.26942 23.6465 4.66322 24.324 5.179C25.0016 5.69478 25.5329 6.32208 25.918 7.0609C26.3031 7.79972 26.4957 8.63611 26.4957 9.57009C26.4957 10.0301 26.3816 10.3751 26.1534 10.6051C25.9251 10.8351 25.6791 10.9536 25.4152 10.9606C25.1513 10.9676 24.9053 10.87 24.6771 10.6679C24.4488 10.4657 24.3347 10.1556 24.3347 9.73737C24.3347 9.17977 24.1778 8.65005 23.864 8.14822C23.5502 7.64638 23.1366 7.20727 22.6231 6.83089C22.1096 6.45451 21.5212 6.15828 20.8579 5.94221C20.1947 5.72615 19.5207 5.61811 18.836 5.61811C18.3939 5.61811 18.0658 5.51356 17.8518 5.30446C17.6379 5.09536 17.538 4.86187 17.5523 4.60398C17.5666 4.34609 17.6985 4.11259 17.9481 3.90349C18.1977 3.69439 18.5579 3.58984 19.0286 3.58984ZM19.0286 6.93544C20.3551 6.93544 21.3607 7.26651 22.0454 7.92866C22.7301 8.59081 23.0724 9.591 23.0724 10.9292C23.0724 11.3474 23.0011 11.6437 22.8584 11.8179C22.7158 11.9922 22.5589 12.0688 22.3877 12.0479C22.2166 12.027 22.0597 11.9259 21.917 11.7447C21.7744 11.5635 21.7031 11.3196 21.7031 11.0129C21.7031 10.1904 21.4606 9.53524 20.9756 9.04734C20.4906 8.55944 19.8416 8.3155 19.0286 8.3155C18.7576 8.3155 18.5579 8.24231 18.4295 8.09594C18.3012 7.94957 18.237 7.79275 18.237 7.62547C18.237 7.45819 18.3047 7.30136 18.4402 7.15499C18.5757 7.00862 18.7719 6.93544 19.0286 6.93544Z" fill="white"/>
</g>
</g>
<defs>
<clipPath id="clip0_1153_3071">
<rect width="23.6923" height="20.8205" fill="white" transform="translate(2.7251 3.58984)"/>
</clipPath>
</defs>
</svg>
