<svg width="29" height="28" viewBox="0 0 29 28" fill="none" xmlns="http://www.w3.org/2000/svg">
<g opacity="0.5">
<path d="M18.7343 10.0773C19.0082 10.0773 19.2782 10.0973 19.5457 10.1264C18.817 6.76831 15.1882 4.27271 11.0465 4.27271C6.41579 4.27271 2.62231 7.39625 2.62231 11.3622C2.62231 13.6511 3.88465 15.5311 5.9933 16.9892L5.15088 19.4974L8.09549 18.0357C9.14981 18.2418 9.99478 18.4543 11.0465 18.4543C11.3108 18.4543 11.5724 18.4415 11.8327 18.4208C11.668 17.8639 11.5724 17.2799 11.5724 16.6746C11.5724 13.0329 14.7328 10.0773 18.7343 10.0773ZM14.2056 7.81684C14.84 7.81684 15.2599 8.23029 15.2599 8.85759C15.2599 9.4823 14.84 9.90092 14.2056 9.90092C13.5738 9.90092 12.9407 9.4823 12.9407 8.85759C12.9407 8.23029 13.5738 7.81684 14.2056 7.81684ZM8.30996 9.90089C7.67812 9.90089 7.04113 9.48227 7.04113 8.85756C7.04113 8.23026 7.67812 7.81681 8.30996 7.81681C8.9411 7.81681 9.36169 8.23026 9.36169 8.85756C9.36169 9.4823 8.9411 9.90089 8.30996 9.90089ZM26.4233 16.5744C26.4233 13.2415 23.053 10.525 19.2679 10.525C15.2599 10.525 12.1034 13.2415 12.1034 16.5744C12.1034 19.9121 15.2599 22.6229 19.2679 22.6229C20.1065 22.6229 20.9528 22.4148 21.7951 22.2055L24.1061 23.4575L23.4723 21.3747C25.1636 20.1189 26.4233 18.4543 26.4233 16.5744ZM16.9448 15.5311C16.5255 15.5311 16.1024 15.1183 16.1024 14.697C16.1024 14.2817 16.5255 13.8637 16.9448 13.8637C17.5818 13.8637 17.9991 14.2817 17.9991 14.697C17.9991 15.1183 17.5818 15.5311 16.9448 15.5311ZM21.5781 15.5311C21.1621 15.5311 20.7415 15.1183 20.7415 14.697C20.7415 14.2817 21.1621 13.8637 21.5781 13.8637C22.2099 13.8637 22.6324 14.2817 22.6324 14.697C22.6324 15.1183 22.2099 15.5311 21.5781 15.5311Z" fill="white"/>
</g>
</svg>
