<svg width="32" height="32" viewBox="0 0 32 32" fill="none" xmlns="http://www.w3.org/2000/svg">
<path fill-rule="evenodd" clip-rule="evenodd" d="M23.0008 8H23.25C23.6642 8 24 8.33579 24 8.75V13.75C24 14.1642 23.6642 14.5 23.25 14.5C22.8358 14.5 22.5 14.1642 22.5 13.75V10.3471L9.53906 23.7709C9.25135 24.0689 8.77655 24.0773 8.47857 23.7896C8.18058 23.5018 8.17225 23.027 8.45996 22.7291L21.2328 9.5L18.25 9.5C17.8358 9.5 17.5 9.16422 17.5 8.75C17.5 8.33579 17.8358 8 18.25 8H22.9984C22.9992 8 23 8 23.0008 8Z" fill="currentColor" fill-opacity="var(--icon--stroke-opacity, 0.8)"/>
</svg>
